<svg width="150" height="226" viewBox="0 0 150 226" fill="none" xmlns="http://www.w3.org/2000/svg">
<g filter="url(#filter0_d_121_2)">
<g clip-path="url(#clip0_121_2)">
<g filter="url(#filter1_d_121_2)">
<path d="M60.935 92.6651C60.3839 102.097 57.2776 111.909 47.0152 113.273C26.5799 115.988 28.27 89.9811 28.27 89.9811C28.27 89.9811 23.3521 88.8734 21.2138 85.0392C20.4375 83.6545 19.826 82.1825 19.3919 80.6535C18.3535 76.956 18.8152 74.3558 18.8152 74.3558H59.5133C59.5133 74.3558 61.4798 83.3237 60.935 92.6651Z" fill="white"/>
<path d="M44.1261 114.908C39.8216 114.908 36.2281 113.571 33.4125 110.914C27.1886 105.037 26.7684 94.5416 26.8124 91.0422C25.0551 90.4312 21.7403 88.9113 19.9726 85.7452C16.4941 79.5128 17.3751 74.3205 17.4166 74.1031C17.4761 73.7724 17.649 73.4732 17.9051 73.2578C18.1611 73.0424 18.4841 72.9244 18.8176 72.9246H59.5133C59.8378 72.9246 60.1526 73.0364 60.4055 73.2413C60.6584 73.4463 60.8342 73.7322 60.9039 74.0516C61.106 74.979 65.7883 96.8858 57.8982 108.236C55.3366 111.921 51.7359 114.095 47.1949 114.699C46.1776 114.836 45.1525 114.906 44.1261 114.908ZM20.1388 75.7936C20.1228 77.4552 20.4159 80.6873 22.4552 84.3389C24.2484 87.5517 28.5424 88.5748 28.5856 88.5845C28.9162 88.6609 29.2091 88.8534 29.4117 89.1277C29.6143 89.4019 29.7133 89.7399 29.6911 90.081C29.6831 90.2066 28.961 102.795 35.3622 108.828C38.1706 111.475 42.027 112.493 46.8267 111.856C50.5936 111.354 53.4564 109.632 55.5675 106.59C61.7978 97.6312 59.1778 80.3573 58.3439 75.7969L20.1388 75.7936Z" fill="#371A45"/>
<path d="M116.985 89.5175C117.05 89.1738 121.412 77.9213 120.757 71.6985C120.186 66.2728 111.675 53.3112 100.143 49.485C88.568 45.6443 84.0686 72.6525 84.0686 72.6525L116.985 89.5175Z" fill="white"/>
<path d="M117.993 86.5687C117.433 88.2721 117.007 89.4088 116.985 89.5134L84.0679 72.6508C84.7076 69.1354 85.608 65.6733 86.7613 62.2935C89.2374 55.1434 93.5403 47.2889 100.144 49.4801C111.677 53.3072 120.184 66.2711 120.758 71.6985C121.209 76.0077 119.26 82.728 117.993 86.5687Z" fill="white"/>
<g opacity="0.35">
<path opacity="0.35" d="M117.992 86.5687C117.433 88.2721 117.007 89.4088 116.985 89.5134L84.0679 72.6508C84.7076 69.1354 85.608 65.6732 86.7613 62.2935C88.4762 61.6664 90.4052 61.5802 92.5618 62.2436C106.414 66.515 117.004 79.8734 117.872 85.3563C117.937 85.7576 117.977 86.1625 117.992 86.5687Z" fill="#371A45"/>
</g>
<path d="M118.03 91.658L82.4912 73.4542L82.6645 72.4149C82.7915 71.6526 85.8659 53.6863 93.7432 48.8924C95.8919 47.5851 98.1939 47.3251 100.588 48.1188C112.684 52.1326 121.564 65.7575 122.172 71.5447C122.577 75.3798 121.351 81.3868 118.529 89.3999C118.454 89.6116 118.4 89.7662 118.37 89.8555L118.03 91.658ZM118.383 89.7815V89.804C118.383 89.7965 118.383 89.789 118.382 89.7815H118.383ZM85.6591 71.8579L116.176 87.4904C119.211 78.6449 119.58 74.1079 119.342 71.8466C118.862 67.258 110.937 54.5734 99.6971 50.8438C98.1068 50.3157 96.6411 50.4815 95.2161 51.3477C89.9651 54.542 86.7158 66.387 85.6591 71.8579Z" fill="#371A45"/>
<path d="M102.446 72.7563C102.526 69.4791 104.13 62.4521 107.658 62.812C111.186 63.1718 118.314 68.2667 116.253 77.8657C114.654 85.3177 102.37 76.0335 102.446 72.7563Z" fill="white"/>
<g opacity="0.35">
<path opacity="0.35" d="M116.456 76.7322C116.402 77.1009 116.334 77.4817 116.253 77.8689C114.655 85.3169 102.368 76.0327 102.446 72.7547C102.486 71.1229 102.902 68.5589 103.752 66.4393C104.994 69.4839 111.559 74.9105 116.456 76.7322Z" fill="#371A45"/>
</g>
<path d="M113.03 82.1259C112.761 82.1252 112.492 82.1085 112.225 82.076C107.649 81.5278 100.949 75.9329 101.025 72.7225C101.091 69.9461 102.128 64.7111 104.632 62.4828C105.568 61.6488 106.664 61.268 107.802 61.3847C109.983 61.6053 113.201 63.2363 115.476 66.3911C117.127 68.6806 118.845 72.5825 117.645 78.1725C117.097 80.7187 115.434 82.1259 113.03 82.1259ZM103.871 72.7878C103.93 74.0758 108.991 78.9236 112.705 79.2432C113.973 79.3518 114.58 78.8817 114.861 77.5663C115.838 73.014 114.482 69.8945 113.172 68.0792C111.305 65.4935 108.767 64.3665 107.516 64.2401C107.302 64.2192 106.962 64.2353 106.514 64.6338C104.902 66.0675 103.928 70.3631 103.87 72.7869L103.871 72.7878Z" fill="#371A45"/>
<path d="M109.705 64.6683C109.514 65.5651 109.348 66.4933 109.209 67.4054C109.07 68.3175 108.959 69.2432 108.89 70.1529C108.813 71.0364 108.804 71.9246 108.863 72.8095C108.889 73.1989 108.954 73.5847 109.055 73.9614C109.142 74.2915 109.316 74.5249 109.333 74.4911C109.595 74.7612 109.742 75.1247 109.739 75.5026C109.737 75.8806 109.587 76.2424 109.322 76.5096C109.057 76.7767 108.698 76.9276 108.323 76.9293C107.948 76.9311 107.587 76.7836 107.319 76.519C107.042 76.2096 106.825 75.8498 106.68 75.4588C106.567 75.1506 106.486 74.8311 106.441 74.5056C106.364 73.9538 106.34 73.3957 106.371 72.8392C106.429 71.8336 106.564 70.834 106.776 69.8494C106.97 68.8882 107.208 67.9496 107.47 67.0214C107.731 66.0932 108.016 65.1836 108.337 64.2618C108.397 64.0894 108.52 63.9465 108.681 63.8622C108.841 63.7779 109.028 63.7585 109.202 63.8079C109.377 63.8574 109.526 63.972 109.62 64.1284C109.713 64.2848 109.744 64.4712 109.706 64.6498L109.705 64.6683Z" fill="#371A45"/>
<path d="M144.381 89.2116C144.14 90.233 143.625 91.1683 142.894 91.9156C139.787 95.0391 134.543 92.3318 133.475 91.7297C133.35 91.6613 133.282 91.6186 133.282 91.6186C133.081 92.6962 132.824 93.7627 132.514 94.8137C131.824 97.1981 130.614 100.605 128.642 103.901C120.462 117.564 105.414 105.687 105.414 105.687L61.1908 101.057L51.3981 100.032C51.3981 100.032 43.1046 96.7787 42.7843 76.23C42.5799 63.2411 70.1688 63.3989 83.1358 64.4317C108.481 66.4539 116.195 89.3372 118.612 86.3216C120.48 83.9871 120.939 75.9072 123.426 73.3037C125.679 70.9434 132.105 71.8298 138.342 77.0978C143.83 81.7379 145.132 86.1525 144.381 89.2116Z" fill="white"/>
<g opacity="0.35">
<path opacity="0.35" d="M144.381 89.2116C144.14 90.233 143.625 91.1683 142.893 91.9156C139.787 95.0391 134.543 92.3318 133.475 91.7297C133.315 87.9461 132.343 84.0369 133.443 83.9403C134.862 83.818 136.36 93.7841 144.381 89.2116Z" fill="#371A45"/>
</g>
<g opacity="0.35">
<path opacity="0.35" d="M132.514 94.8137C131.824 97.1981 130.614 100.605 128.642 103.901C120.462 117.564 105.414 105.687 105.414 105.687L61.1907 101.057C65.2396 90.8941 72.5769 78.3133 82.9887 79.0805C100.332 80.3468 105.645 95.0198 118.735 103.356C126.677 108.412 132.339 94.0562 132.339 94.0562C132.339 94.0562 132.4 94.3258 132.514 94.8137Z" fill="#371A45"/>
</g>
<path d="M117.994 111.909C111.887 111.909 106.302 108.12 104.876 107.074L51.061 101.439L50.8829 101.369C50.5074 101.222 41.6972 97.5233 41.3609 76.2524C41.3178 73.4759 42.357 71.0641 44.4513 69.083C52.5227 61.4466 74.2735 62.2871 83.2499 63.0035C101.31 64.4437 110.567 75.9385 115.545 82.1145C116.365 83.1313 117.266 84.2502 117.856 84.8282C118.365 83.7632 118.82 81.9254 119.231 80.267C119.995 77.187 120.784 74.0016 122.402 72.3079C125.526 69.0339 132.931 70.656 139.255 76.0005C144.621 80.5343 145.879 84.5771 145.99 87.17C146.088 89.4337 145.345 91.4809 143.899 92.9331C140.93 95.9165 136.653 94.7428 134.28 93.7244C133.69 96.1129 132.377 100.44 129.86 104.644C127.487 108.604 124.336 110.974 120.493 111.686C119.668 111.836 118.832 111.911 117.994 111.909ZM51.7966 98.631L105.97 104.305L106.289 104.559C106.359 104.614 113.414 110.086 119.986 108.861C122.989 108.298 125.49 106.384 127.42 103.16C130.801 97.5152 131.864 91.4382 131.875 91.3778L132.23 89.2936L134.019 90.3949C134.087 90.4368 139.259 93.5417 141.887 90.9004C142.759 90.0238 143.207 88.7422 143.144 87.2924C143.022 84.4418 140.988 81.2121 137.424 78.1957C131.698 73.3568 126.007 72.6629 124.45 74.2938C123.359 75.4361 122.632 78.3704 121.99 80.9593C121.331 83.6159 120.763 85.9094 119.715 87.2183C119.524 87.467 119.28 87.6687 119 87.8081C118.72 87.9476 118.412 88.0212 118.1 88.0233C116.645 88.0233 115.539 86.65 113.337 83.9178C108.63 78.0758 99.8696 67.2017 83.0255 65.8589C69.1991 64.756 52.3182 65.5723 46.4002 71.172C44.8962 72.5985 44.1773 74.2447 44.2069 76.2057C44.4824 93.8259 50.7742 98.0594 51.7966 98.631Z" fill="#371A45"/>
<path d="M134.15 83.8824C134.26 84.5433 134.349 85.1841 134.427 85.8378C134.505 86.4914 134.569 87.1435 134.619 87.802C134.729 89.1407 134.752 90.4853 134.69 91.8271V91.8327C134.669 92.2143 134.5 92.5723 134.218 92.8278C133.936 93.0833 133.565 93.2155 133.186 93.1952C132.807 93.1749 132.452 93.0038 132.199 92.7196C131.945 92.4354 131.814 92.0614 131.834 91.6797C131.839 91.5902 131.852 91.5013 131.873 91.4141C132.155 90.2142 132.36 88.9972 132.486 87.7706C132.553 87.147 132.606 86.5196 132.646 85.8885C132.686 85.2606 132.716 84.619 132.725 84.0015V83.9846C132.73 83.8059 132.8 83.6352 132.923 83.5058C133.045 83.3764 133.211 83.2976 133.388 83.2848C133.565 83.2719 133.74 83.3259 133.88 83.4362C134.02 83.5466 134.113 83.7053 134.143 83.8816L134.15 83.8824Z" fill="#371A45"/>
<path d="M117.383 84.3267C117.849 84.9047 118.262 85.4602 118.68 86.039C119.099 86.6178 119.496 87.199 119.883 87.7947C120.652 88.9894 121.375 90.2251 121.94 91.5735C122.008 91.7391 122.013 91.9245 121.952 92.0933C121.892 92.262 121.772 92.4021 121.614 92.4859C121.457 92.5697 121.274 92.5913 121.102 92.5464C120.93 92.5015 120.78 92.3934 120.683 92.2432L120.672 92.2263C119.969 91.1275 119.107 90.1011 118.196 89.1182C117.74 88.6282 117.272 88.1484 116.791 87.6788C116.312 87.2143 115.814 86.7418 115.335 86.3232C115.069 86.0678 114.91 85.7188 114.893 85.3487C114.875 84.9787 115 84.616 115.241 84.3362C115.481 84.0563 115.82 83.8807 116.186 83.846C116.552 83.8113 116.917 83.92 117.206 84.1496C117.27 84.2037 117.329 84.263 117.383 84.3267Z" fill="#371A45"/>
<path d="M111.293 87.29C109.503 92.4606 105.831 97.4171 99.507 99.5182L92.8318 95.1647C92.8318 95.1647 98.7282 91.9011 101.538 85.9521C101.886 85.2099 102.191 84.4926 102.453 83.8003C105.196 76.531 103.392 71.9159 103.392 71.9159C103.392 71.9159 107.431 68.6556 110.836 72.2315C112.854 74.3543 113.474 80.9844 111.293 87.29Z" fill="white"/>
<g opacity="0.35">
<path opacity="0.35" d="M111.293 87.29C109.503 92.4606 105.831 97.4171 99.507 99.5182L92.8318 95.1647C92.8318 95.1647 98.7282 91.9011 101.538 85.9521C101.886 85.2099 102.191 84.4926 102.453 83.8003C103.491 85.321 104.919 86.7949 106.686 87.2393C108.196 87.6224 109.775 87.6398 111.293 87.29Z" fill="#371A45"/>
</g>
<path d="M99.5085 100.953C99.1699 100.953 98.8422 100.832 98.5843 100.611C98.3265 100.389 98.1553 100.083 98.1017 99.7457C98.048 99.4087 98.1152 99.0634 98.2914 98.772C98.4676 98.4805 98.7411 98.2618 99.0628 98.1553C106.82 95.5793 109.59 88.6618 110.55 84.7688C111.927 79.1924 111.002 74.4807 109.804 73.2232C108.066 71.3951 106.106 71.9892 105.041 72.5486C105.521 74.7222 106.024 79.7938 102.823 86.5688C99.848 92.8624 93.7727 96.2796 93.5155 96.4213C93.185 96.6009 92.7975 96.6415 92.4374 96.5345C92.0773 96.4274 91.7737 96.1813 91.5928 95.8497C91.4119 95.5181 91.3684 95.1279 91.4716 94.7641C91.5749 94.4003 91.8165 94.0923 92.144 93.9073C92.2351 93.8566 97.6906 90.7556 100.252 85.3355C103.914 77.5848 102.079 72.481 102.061 72.4303L101.696 71.4546L102.499 70.7937C104.248 69.3833 108.455 67.6606 111.859 71.2365C114.143 73.637 114.755 79.6191 113.313 85.4619C111.437 93.0628 106.568 98.6826 99.9542 100.88C99.8104 100.928 99.66 100.953 99.5085 100.953Z" fill="#371A45"/>
<path d="M101.473 208.529C70.9355 225.628 32.4356 214.546 15.4669 183.771C12.5942 178.574 10.4586 172.996 9.12241 167.201C8.55672 164.754 8.13768 162.275 7.86757 159.777C5.17896 135.039 17.0908 109.941 40.0294 97.0951C50.803 91.0639 62.5662 88.5378 74.0275 89.148C95.0531 90.2653 115.053 101.934 126.035 121.851C129.402 127.941 131.753 134.548 132.994 141.407C137.711 167.534 125.785 194.914 101.473 208.529Z" fill="#FFA726"/>
<g opacity="0.35">
<path opacity="0.35" d="M101.474 208.529C70.9356 225.628 32.4357 214.545 15.4686 183.771C12.5961 178.573 10.4603 172.996 9.12327 167.201C8.78939 165.757 8.50663 164.303 8.27979 162.849C20.2363 177.726 37.4503 186.71 55.6235 188.565L55.3343 188.26C54.8282 186.254 54.9162 184.142 55.5876 182.187C57.602 176.353 62.3019 172.326 71.4276 175.531C76.6307 177.356 80.0406 181.883 80.2938 186.64C85.992 185.136 91.4793 182.914 96.6259 180.027C96.9031 179.871 97.177 179.714 97.451 179.555C96.5269 175.861 97.5373 171.433 100.476 167.889C104.663 162.843 111.285 161.359 115.806 164.261C123.321 155.403 128.545 144.809 131.014 133.424C131.844 136.038 132.505 138.704 132.993 141.404C137.711 167.533 125.786 194.914 101.474 208.529Z" fill="#371A45"/>
</g>
<g opacity="0.4">
<path opacity="0.4" d="M134.629 141.564C133.328 137.5 131.636 133.574 129.577 129.841C117.175 107.35 93.481 95.1792 69.5911 96.53V96.5421C70.5089 100.223 66.6549 104.37 60.9853 105.805C55.3158 107.241 49.9737 105.422 49.0568 101.742C49.0132 101.57 48.9801 101.396 48.9577 101.221C46.5525 102.208 44.2092 103.341 41.9407 104.615C17.133 118.508 4.98074 146.455 9.83077 173.105C0.605168 144.199 12.5745 111.813 39.9134 96.5018C71.0249 79.0773 110.263 90.3708 127.553 121.729C130.97 127.907 133.36 134.607 134.629 141.564Z" fill="white"/>
</g>
<path d="M71.1753 217.998C65.1295 217.993 59.114 217.139 53.3024 215.459C36.6755 210.674 22.8938 199.648 14.4949 184.416C-2.8428 152.969 8.4364 113.172 39.6373 95.6959C70.8382 78.2199 110.327 89.5883 127.667 121.035C136.066 136.269 138.076 153.886 133.327 170.643C128.578 187.399 117.639 201.29 102.524 209.755C92.7736 215.219 82.0383 217.998 71.1753 217.998ZM70.9764 90.4955C60.5135 90.4931 50.2237 93.187 41.0846 98.3211C11.3207 114.993 0.560688 152.961 17.0997 182.959C25.1112 197.491 38.2594 208.009 54.1203 212.574C69.9811 217.139 86.6575 215.207 101.077 207.132C115.497 199.057 125.932 185.807 130.463 169.821C134.993 153.835 133.075 137.029 125.062 122.496C113.79 102.048 92.6929 90.498 70.978 90.498L70.9764 90.4955Z" fill="#371A45"/>
<path d="M80.0996 182.577C80.4174 183.212 80.676 183.875 80.872 184.558C81.0634 185.253 81.1878 185.965 81.2434 186.683C81.2965 187.411 81.2764 188.142 81.1835 188.865C81.0929 189.573 80.9563 190.274 80.7745 190.964C80.4075 192.388 79.8025 193.738 78.9853 194.957C78.1163 196.212 76.9844 197.259 75.6697 198.024C74.351 198.792 72.882 199.232 71.4299 199.436C69.973 199.648 68.5248 199.622 67.1118 199.489C66.4033 199.403 65.7196 199.303 65.0127 199.16C64.2936 199.015 63.5857 198.819 62.8944 198.573C62.1998 198.329 61.5242 198.033 60.8736 197.687C60.2174 197.346 59.5908 196.95 59.0005 196.504C57.8073 195.613 56.76 194.54 55.8965 193.323C55.0175 192.099 54.3679 190.724 53.9795 189.265C53.1808 186.342 53.557 183.099 55.0467 180.498C56.4996 177.865 58.9558 175.965 61.626 174.987C64.2822 174.026 67.167 173.909 69.8915 174.651C70 174.68 70.0933 174.75 70.1529 174.846C70.2124 174.942 70.2338 175.057 70.2127 175.169C70.1916 175.28 70.1296 175.379 70.0391 175.446C69.9485 175.513 69.8362 175.543 69.7246 175.531C67.1566 175.254 64.5694 175.643 62.3369 176.72C60.1004 177.773 58.2465 179.529 57.2169 181.657C56.1873 183.785 55.9868 186.263 56.6873 188.486C57.363 190.716 58.8375 192.71 60.7609 194.095C61.7233 194.796 62.7773 195.359 63.8929 195.768C64.4532 195.974 65.0277 196.139 65.6118 196.261C66.2061 196.387 66.8379 196.486 67.4489 196.565C68.675 196.715 69.9043 196.777 71.0856 196.641C72.2414 196.526 73.368 196.207 74.4141 195.699C76.4565 194.675 77.9533 192.691 78.7745 190.338C78.9851 189.747 79.164 189.145 79.3104 188.535C79.451 187.938 79.5358 187.33 79.5636 186.717C79.6214 185.461 79.4592 184.204 79.0844 183.004L79.0804 182.992C79.0384 182.858 79.0482 182.713 79.1079 182.586C79.1676 182.459 79.2726 182.359 79.402 182.307C79.5314 182.255 79.6756 182.255 79.8056 182.305C79.9355 182.356 80.0417 182.454 80.1028 182.58L80.0996 182.577Z" fill="#371A45"/>
<g opacity="0.4">
<path opacity="0.4" d="M85.9825 149.293C84.5431 150.008 82.9503 150.354 81.3463 150.297C79.7423 150.241 78.1771 149.785 76.7905 148.971C78.0894 149.401 79.4699 149.521 80.8228 149.322C82.1756 149.122 83.4639 148.608 84.5856 147.82C85.7074 147.032 86.632 145.992 87.2862 144.782C87.9405 143.571 88.3065 142.225 88.3554 140.847C88.4042 139.47 88.1346 138.101 87.5678 136.846C87.001 135.592 86.1526 134.488 85.0896 133.622C84.0265 132.755 82.778 132.149 81.4428 131.852C80.1075 131.556 78.7221 131.576 77.3959 131.912C77.1188 131.982 76.8504 132.066 76.5852 132.161C76.8464 132 77.1132 131.85 77.3919 131.711C78.5375 131.143 79.7829 130.807 81.0571 130.724C82.3313 130.641 83.6094 130.811 84.8182 131.225C86.0271 131.64 87.1432 132.29 88.1027 133.139C89.0622 133.988 89.8464 135.02 90.4104 136.174C90.9745 137.329 91.3074 138.584 91.3901 139.868C91.4729 141.152 91.3039 142.44 90.8927 143.659C90.4815 144.877 89.8363 146.002 88.9938 146.969C88.1513 147.936 87.1281 148.726 85.9825 149.295V149.293Z" fill="white"/>
</g>
<g opacity="0.35">
<path opacity="0.35" d="M46.2769 163.452C51.4709 158.217 51.4709 149.73 46.2769 144.496C41.0829 139.261 32.6618 139.261 27.4678 144.496C22.2738 149.73 22.2738 158.217 27.4678 163.452C32.6618 168.687 41.0829 168.687 46.2769 163.452Z" fill="#371A45"/>
</g>
<g opacity="0.4">
<path opacity="0.4" d="M55.3486 148.656C58.2864 157.208 53.7887 166.542 45.3035 169.506C36.8183 172.47 27.5536 167.935 24.6158 159.383C24.5572 159.213 24.5021 159.044 24.4504 158.875C25.6132 161.469 27.5656 163.623 30.0245 165.024C32.4834 166.425 35.3211 167 38.1262 166.666C40.9313 166.333 43.5581 165.107 45.6258 163.168C47.6935 161.229 49.0946 158.676 49.6261 155.88C50.1576 153.084 49.7918 150.19 48.5818 147.618C47.3718 145.046 45.3804 142.929 42.8963 141.574C40.4122 140.219 37.5645 139.696 34.7659 140.082C31.9674 140.468 29.3634 141.742 27.3315 143.719C29.2411 141.327 31.7824 139.528 34.6625 138.529C43.1485 135.568 52.41 140.101 55.3486 148.656Z" fill="white"/>
</g>
<path d="M26.7557 143.564C28.8501 141.166 31.863 139.533 35.0843 139.035C38.3129 138.499 41.7339 139.15 44.6318 140.784C46.0836 141.617 47.3876 142.687 48.4906 143.952L48.898 144.435L49.1017 144.676L49.283 144.934C49.5226 145.28 49.767 145.622 49.9971 145.975L50.6121 147.08C50.8134 147.45 50.9611 147.847 51.1305 148.234C51.7415 149.804 52.1433 151.463 52.2336 153.158C52.3229 154.852 52.134 156.55 51.6744 158.182C51.2176 159.813 50.4882 161.353 49.5178 162.737C48.5609 164.126 47.3822 165.346 46.0296 166.346C44.6696 167.325 43.1612 168.076 41.563 168.57C41.1636 168.678 40.7699 168.822 40.3649 168.896L39.1396 169.111C38.3137 169.186 37.4878 169.264 36.6635 169.211C35.0148 169.14 33.3742 168.83 31.8502 168.216C30.3352 167.605 28.9281 166.751 27.6831 165.687C25.191 163.589 23.5479 160.6 22.9624 157.499C22.9414 157.388 22.963 157.273 23.0229 157.177C23.0829 157.081 23.1766 157.011 23.2854 156.982C23.3941 156.953 23.5098 156.966 23.609 157.02C23.7083 157.073 23.7838 157.163 23.8203 157.27L23.8243 157.282C24.7828 160.085 26.4929 162.578 28.8341 164.219C29.9795 165.051 31.246 165.697 32.5882 166.137C33.919 166.553 35.3062 166.756 36.6994 166.739C37.3919 166.752 38.0773 166.642 38.7586 166.549L39.7666 166.319C40.1037 166.25 40.4232 166.112 40.7523 166.015C42.0487 165.567 43.2649 164.911 44.3539 164.073C46.4801 162.368 48.1424 160.025 48.8269 157.368C49.1813 156.048 49.3359 154.682 49.2854 153.316C49.2247 151.948 48.9028 150.598 48.4203 149.322C47.489 146.736 45.5999 144.568 43.2995 143.061C42.1241 142.325 40.8395 141.783 39.4942 141.455C38.1515 141.117 36.7409 140.968 35.3407 141.111C32.5235 141.292 29.7678 142.462 27.5345 144.358C27.428 144.449 27.2913 144.496 27.1518 144.49C27.0123 144.483 26.8804 144.424 26.7826 144.324C26.6848 144.223 26.6283 144.089 26.6245 143.948C26.6207 143.808 26.6699 143.671 26.7621 143.565L26.7557 143.564Z" fill="#371A45"/>
<path d="M112.679 162.594C113.349 162.663 114.012 162.796 114.658 162.992C115.313 163.198 115.944 163.474 116.541 163.814C117.76 164.513 118.811 165.473 119.621 166.626C120.43 167.797 121.003 169.117 121.307 170.51C121.603 171.897 121.654 173.327 121.456 174.732C121.272 176.127 120.886 177.488 120.309 178.769C119.72 180.037 118.982 181.23 118.11 182.32C117.206 183.381 116.186 184.335 115.068 185.164C113.929 185.981 112.689 186.643 111.38 187.135C110.049 187.615 108.656 187.893 107.245 187.962C105.83 188.025 104.377 187.881 103.006 187.398C101.625 186.934 100.353 186.191 99.2683 185.213C98.187 184.241 97.3298 183.042 96.757 181.701C95.6188 179.035 95.6491 176.066 96.4527 173.468C96.8657 172.18 97.4493 170.954 98.1876 169.823C98.9363 168.73 99.8175 167.735 100.811 166.862C100.894 166.787 101.003 166.747 101.115 166.749C101.226 166.752 101.333 166.796 101.414 166.874C101.494 166.953 101.543 167.058 101.549 167.171C101.556 167.283 101.52 167.394 101.45 167.481L101.439 167.495C100.664 168.442 99.9884 169.467 99.4217 170.554C98.8944 171.63 98.5006 172.768 98.2491 173.941C97.7594 176.258 98.0007 178.671 98.9799 180.654C99.479 181.624 100.168 182.482 101.006 183.177C101.843 183.871 102.811 184.387 103.852 184.693C105.936 185.304 108.259 185.116 110.365 184.329C111.42 183.913 112.424 183.379 113.36 182.736C114.284 182.059 115.131 181.281 115.886 180.416C116.625 179.541 117.264 178.584 117.788 177.563C118.282 176.533 118.645 175.444 118.867 174.322C118.908 174.041 118.975 173.758 118.998 173.479L119.061 172.629L119.044 171.782C119.044 171.498 118.978 171.223 118.958 170.941C118.811 169.821 118.448 168.742 117.889 167.764C116.803 165.768 114.805 164.319 112.49 163.685H112.479C112.345 163.647 112.231 163.561 112.158 163.442C112.085 163.324 112.059 163.182 112.084 163.045C112.11 162.908 112.186 162.785 112.297 162.702C112.408 162.619 112.546 162.58 112.683 162.594H112.679Z" fill="#371A45"/>
<g opacity="0.35">
<path opacity="0.35" d="M85.7786 146.811C89.2214 143.341 89.2214 137.715 85.7786 134.245C82.3358 130.776 76.7539 130.776 73.3111 134.245C69.8683 137.715 69.8683 143.341 73.3111 146.811C76.7539 150.28 82.3358 150.28 85.7786 146.811Z" fill="#371A45"/>
</g>
<path d="M72.0401 146.053C70.7517 144.494 70.0552 142.394 70.0975 140.28C70.1175 139.208 70.3196 138.148 70.695 137.145C71.0797 136.133 71.6266 135.191 72.3141 134.357C73.7047 132.696 75.6784 131.48 77.839 131.069C80.0134 130.625 82.2729 130.943 84.2434 131.971C86.2124 132.968 87.7859 134.675 88.7037 136.67C89.1517 137.672 89.4295 138.743 89.5256 139.837C89.6314 140.92 89.5457 142.014 89.2724 143.067C89.0188 144.113 88.5881 145.106 87.9992 146.004C87.412 146.882 86.6865 147.658 85.8513 148.3C84.2167 149.556 82.1964 150.192 80.1434 150.099C80.0342 150.094 79.9307 150.048 79.8525 149.971C79.7744 149.894 79.727 149.791 79.7195 149.681C79.712 149.571 79.7449 149.462 79.8119 149.375C79.8788 149.288 79.9752 149.229 80.0827 149.208H80.0979C81.8552 148.878 83.4703 148.102 84.646 146.88C85.2357 146.292 85.7324 145.616 86.1189 144.876C86.4856 144.146 86.7402 143.364 86.8737 142.557C86.9536 142.161 86.9536 141.752 86.9744 141.35L86.9448 140.747C86.9448 140.546 86.8945 140.349 86.8737 140.151C86.7499 139.367 86.5075 138.607 86.1549 137.897C85.4256 136.506 84.2906 135.321 82.8928 134.638C82.1981 134.292 81.4556 134.055 80.6906 133.933C79.9199 133.823 79.137 133.834 78.3694 133.964C76.8254 134.196 75.3989 135.004 74.2654 136.123C73.7068 136.704 73.2431 137.37 72.8916 138.097C72.5153 138.829 72.2683 139.621 72.1615 140.439C71.8883 142.092 72.1847 143.849 72.9603 145.447V145.453C73.0195 145.576 73.0322 145.716 72.9958 145.848C72.9594 145.979 72.8766 146.093 72.7628 146.167C72.6491 146.242 72.5123 146.271 72.3783 146.251C72.2443 146.231 72.1223 146.162 72.0353 146.057L72.0401 146.053Z" fill="#371A45"/>
<g opacity="0.3">
<path opacity="0.3" d="M118.957 134.988C117.771 136.43 115.995 136.665 114.275 135.837C115.154 136.025 116.026 135.891 116.774 135.387C118.875 133.97 119.234 130.155 117.572 126.864C115.911 123.573 112.868 122.058 110.765 123.475C110.643 123.559 110.526 123.651 110.415 123.751C110.508 123.605 110.609 123.465 110.719 123.332C112.602 121.042 115.971 121.794 118.246 125.013C120.521 128.232 120.84 132.698 118.957 134.988Z" fill="white"/>
<path opacity="0.3" d="M116.225 136.48C115.523 136.47 114.833 136.301 114.204 135.987L112.963 135.39L114.309 135.675C115.176 135.86 115.996 135.712 116.682 135.25C118.713 133.881 119.048 130.151 117.429 126.939C116.464 125.024 114.964 123.639 113.417 123.231C112.48 122.984 111.596 123.117 110.861 123.613C110.744 123.692 110.633 123.78 110.528 123.875L109.63 124.68L110.281 123.665C110.378 123.513 110.485 123.368 110.6 123.231C111.38 122.282 112.414 121.806 113.608 121.848C115.31 121.91 117.052 123.03 118.387 124.92C120.699 128.192 121.013 132.757 119.088 135.097C118.331 136.009 117.328 136.48 116.225 136.48ZM115.426 136.061C116.747 136.34 117.972 135.931 118.834 134.882C120.672 132.65 120.348 128.266 118.116 125.109C116.838 123.303 115.191 122.233 113.591 122.174C113.16 122.153 112.729 122.218 112.323 122.366C111.917 122.515 111.544 122.743 111.227 123.038C111.918 122.743 112.694 122.698 113.501 122.91C115.138 123.341 116.715 124.791 117.723 126.789C119.415 130.146 119.03 134.065 116.866 135.525C116.435 135.817 115.942 136.001 115.426 136.061Z" fill="#371A45"/>
</g>
<g opacity="0.35">
<path opacity="0.35" d="M116.156 135.713C118.485 134.813 119.305 131.273 117.987 127.807C116.668 124.34 113.711 122.26 111.382 123.16C109.052 124.059 108.233 127.599 109.551 131.065C110.869 134.532 113.826 136.613 116.156 135.713Z" fill="#371A45"/>
</g>
<g opacity="0.4">
<path opacity="0.4" d="M119.243 135.071C118.322 135.692 117.238 135.807 116.146 135.494C116.206 135.461 116.263 135.425 116.322 135.386C118.424 133.969 118.782 130.154 117.121 126.865C115.732 124.108 113.367 122.599 111.399 123.015C111.692 122.531 112.085 122.116 112.55 121.798C114.892 120.221 118.287 121.91 120.139 125.576C121.99 129.243 121.583 133.491 119.243 135.071Z" fill="white"/>
</g>
<path d="M110.987 134.383C109.969 133.532 109.202 132.386 108.676 131.137C108.12 129.841 107.884 128.429 107.987 127.021C108.04 126.258 108.225 125.511 108.534 124.813C108.877 124.031 109.411 123.35 110.086 122.832C110.814 122.289 111.69 121.983 112.595 121.953C113.438 121.933 114.273 122.119 115.03 122.494C116.456 123.194 117.492 124.287 118.246 125.485C118.989 126.674 119.481 128.005 119.692 129.394C119.89 130.77 119.806 132.211 119.298 133.551C119.033 134.213 118.665 134.858 118.132 135.37C117.599 135.882 116.934 136.26 116.23 136.361C116.126 136.376 116.021 136.354 115.932 136.299C115.843 136.243 115.776 136.159 115.742 136.059C115.708 135.96 115.71 135.851 115.746 135.753C115.783 135.654 115.853 135.572 115.944 135.519L115.964 135.507C116.892 134.981 117.363 134.041 117.517 133.02C117.598 132.504 117.616 131.98 117.571 131.46C117.415 129.876 116.841 128.363 115.91 127.077C115.31 126.251 114.552 125.564 113.774 125.205C112.986 124.846 112.32 124.868 111.79 125.223C111.244 125.567 110.779 126.394 110.599 127.366C110.403 128.337 110.439 129.428 110.652 130.506C110.844 131.596 111.261 132.65 111.822 133.662L111.831 133.679C111.894 133.794 111.915 133.927 111.89 134.055C111.866 134.184 111.798 134.3 111.699 134.384C111.599 134.468 111.473 134.514 111.343 134.514C111.213 134.515 111.087 134.47 110.987 134.387V134.383Z" fill="#371A45"/>
<g opacity="0.4">
<path opacity="0.4" d="M79.6713 115.688C78.5645 116.238 77.3398 116.503 76.1066 116.46C74.8734 116.417 73.67 116.066 72.604 115.44C73.6027 115.771 74.664 115.863 75.7042 115.709C76.7443 115.555 77.7348 115.16 78.5972 114.554C79.4596 113.948 80.1705 113.149 80.6735 112.218C81.1765 111.288 81.4579 110.252 81.4955 109.193C81.5331 108.135 81.3258 107.082 80.8901 106.117C80.4543 105.153 79.802 104.304 78.9848 103.638C78.1675 102.971 77.2076 102.506 76.181 102.277C75.1544 102.049 74.0892 102.065 73.0696 102.323C72.8564 102.378 72.6503 102.441 72.4458 102.514C72.6463 102.39 72.8524 102.273 73.0664 102.169C73.9483 101.722 74.9092 101.456 75.8936 101.385C76.8781 101.315 77.8667 101.442 78.8024 101.758C79.7381 102.074 80.6024 102.574 81.3453 103.229C82.0883 103.884 82.6953 104.681 83.1313 105.573C83.5672 106.465 83.8236 107.436 83.8855 108.429C83.9474 109.421 83.8137 110.417 83.492 111.357C83.1704 112.297 82.6672 113.164 82.0114 113.908C81.3556 114.651 80.5603 115.256 79.6713 115.688Z" fill="white"/>
</g>
<g opacity="0.35">
<path opacity="0.35" d="M79.5143 113.78C82.1614 111.112 82.1614 106.786 79.5143 104.119C76.8672 101.451 72.5755 101.451 69.9284 104.119C67.2814 106.786 67.2814 111.112 69.9284 113.78C72.5755 116.447 76.8672 116.447 79.5143 113.78Z" fill="#371A45"/>
</g>
<path d="M68.845 113.265C67.7946 112.072 67.2131 110.418 67.2195 108.74C67.2328 107.005 67.8378 105.328 68.9329 103.99C70.0383 102.656 71.6143 101.67 73.3484 101.333C75.0937 100.973 76.909 101.227 78.4907 102.053C80.0699 102.858 81.3303 104.227 82.058 105.837C82.4137 106.641 82.6317 107.5 82.7026 108.377C82.8536 110.112 82.4077 111.846 81.4397 113.288C80.9652 113.98 80.3807 114.587 79.7096 115.087C78.407 116.058 76.8029 116.527 75.1871 116.41C75.0794 116.401 74.9785 116.353 74.9029 116.276C74.8272 116.198 74.782 116.095 74.7755 115.987C74.769 115.878 74.8016 115.771 74.8674 115.684C74.9332 115.598 75.0277 115.539 75.1336 115.517H75.1424C77.8182 114.974 79.7895 112.811 80.0723 110.445C80.2584 109.277 80.018 108.077 79.5131 107.064C78.974 106.065 78.1553 105.213 77.1432 104.725C76.6424 104.477 76.1077 104.306 75.5569 104.217C75.0002 104.137 74.4346 104.142 73.8795 104.233C72.7653 104.394 71.7269 104.958 70.8922 105.763C70.4796 106.181 70.1318 106.659 69.8602 107.182C69.5705 107.714 69.3753 108.292 69.2835 108.892C69.0439 110.11 69.2284 111.421 69.7628 112.654L69.7684 112.666C69.8179 112.789 69.8233 112.924 69.7837 113.05C69.744 113.176 69.6619 113.284 69.5516 113.355C69.4412 113.426 69.3097 113.455 69.1798 113.438C69.05 113.422 68.9301 113.36 68.841 113.263L68.845 113.265Z" fill="#371A45"/>
<path d="M39.3129 109.981C39.0102 108.197 41.2555 105.151 44.7404 103.821C48.2254 102.491 51.2902 103.466 51.9292 105.168" fill="#FFA726"/>
<path d="M38.8088 110.068C38.6682 109.648 38.6256 109.2 38.6842 108.761C38.7328 108.347 38.8335 107.941 38.9838 107.553C39.2769 106.811 39.6854 106.12 40.1939 105.507C41.1996 104.3 42.4756 103.351 43.9169 102.738C45.3474 102.126 46.9521 101.825 48.5648 102.054C49.3895 102.164 50.1824 102.445 50.8932 102.881C51.2624 103.116 51.5935 103.408 51.8749 103.744C52.015 103.923 52.138 104.114 52.2423 104.316C52.3413 104.524 52.4132 104.743 52.4564 104.97C52.4779 105.093 52.4586 105.221 52.4014 105.332C52.3442 105.443 52.2522 105.533 52.1397 105.586C52.0271 105.64 51.9002 105.655 51.7785 105.629C51.6568 105.602 51.5469 105.537 51.4659 105.441L51.406 105.371C51.0705 104.977 50.6072 104.733 50.0753 104.586C49.5262 104.44 48.9591 104.374 48.3915 104.391C47.2269 104.417 46.0447 104.703 44.9193 105.163C43.7874 105.63 42.7359 106.275 41.8042 107.073C41.341 107.467 40.9202 107.908 40.5485 108.39C40.1859 108.864 39.9047 109.381 39.8161 109.897L39.8009 109.983C39.7816 110.096 39.7257 110.2 39.6419 110.278C39.5581 110.355 39.4512 110.403 39.3377 110.413C39.2243 110.423 39.1108 110.394 39.015 110.332C38.9192 110.271 38.8464 110.178 38.808 110.07L38.8088 110.068Z" fill="#371A45"/>
<g opacity="0.35">
<path opacity="0.35" d="M47.0975 110.969C50.7776 109.277 53.0954 106.434 52.2743 104.621C51.4533 102.808 47.8043 102.71 44.1242 104.403C40.444 106.096 38.1263 108.938 38.9473 110.751C39.7684 112.564 43.4173 112.662 47.0975 110.969Z" fill="#371A45"/>
</g>
<g opacity="0.3">
<path opacity="0.3" d="M24.9631 123.586C25.2291 123.22 25.4983 122.853 25.7811 122.49C25.5015 122.853 25.2291 123.217 24.9631 123.586Z" fill="#293856"/>
</g>
<g opacity="0.35">
<path opacity="0.35" d="M91.8628 91.4672C91.2426 93.4948 90.4062 95.4487 89.3683 97.2947C88.7383 98.4165 88.0195 99.4853 87.2189 100.491C86.45 101.458 85.6013 102.357 84.682 103.18C82.6364 105.012 80.0421 106.003 77.3447 106.447C71.2103 107.465 64.5526 105.648 62.6388 104.425C60.1475 102.832 57.4038 100.466 56.9805 94.3363C56.9597 94.0497 56.9453 93.7559 56.9341 93.4508C55.6497 93.6407 54.351 93.7728 53.049 93.8452C52.213 93.8919 51.3756 93.9158 50.5369 93.9169C43.9144 93.892 37.3837 92.3545 31.4355 89.4201C30.735 89.0683 30.0441 88.71 29.3715 88.3293C28.0033 87.5607 26.6766 86.7193 25.3969 85.8088C23.245 84.2786 21.2358 82.5542 19.3943 80.6567C18.3559 76.9593 18.8176 74.3591 18.8176 74.3591H59.5133C59.5133 74.3591 60.9511 80.899 61.0309 88.6319C61.2298 88.5997 61.4303 88.5675 61.6356 88.5386C62.2339 88.4492 62.8281 88.3703 63.4256 88.3019C63.6708 88.2697 63.9168 88.2447 64.1621 88.2214H64.166C64.44 88.1892 64.7172 88.1642 64.9912 88.1409H64.9952C65.2651 88.1159 65.5359 88.091 65.8059 88.0692H65.8235C66.0974 88.0483 66.3754 88.0266 66.6494 88.0089C67.2042 87.9729 67.7591 87.9442 68.314 87.9227C68.5879 87.9115 68.8619 87.901 69.1399 87.8937C69.4139 87.8865 69.6878 87.8833 69.9618 87.8793C70.2358 87.8752 70.5169 87.872 70.7909 87.872C71.0649 87.872 71.3572 87.872 71.6384 87.8793C71.7981 87.8793 71.9579 87.8793 72.1176 87.8865H72.1336L72.636 87.897L73.4468 87.93C73.6065 87.93 73.7711 87.9404 73.9308 87.9509H73.9484C74.1768 87.9622 74.4077 87.9759 74.6353 87.9904C74.938 88.0089 75.2368 88.0266 75.5395 88.0515C75.5663 88.052 75.593 88.0544 75.6194 88.0588C75.9181 88.0805 76.2208 88.1055 76.5196 88.1304C76.6873 88.1481 76.8542 88.1626 77.0212 88.1803C77.4589 88.2238 77.8998 88.2705 78.3343 88.3244H78.3383C78.6123 88.3566 78.8895 88.392 79.1634 88.4283H79.1674L79.6403 88.4927C79.6579 88.4967 79.6758 88.4991 79.6938 88.4999C79.9039 88.5281 80.11 88.5611 80.3168 88.5933C80.6619 88.6432 81.007 88.7004 81.348 88.7543C81.4479 88.772 81.5437 88.7865 81.6436 88.8042C81.7003 88.8147 81.7538 88.8219 81.8113 88.8332C82.3017 88.9191 82.7927 89.0122 83.2842 89.1125C83.8322 89.2204 84.3761 89.3387 84.9177 89.4603C85.1876 89.5247 85.4584 89.5859 85.7284 89.6543C85.9984 89.7227 86.266 89.7831 86.5367 89.8548C86.8035 89.9232 87.0743 89.9948 87.3411 90.0665C87.6079 90.1381 87.8746 90.2098 88.1398 90.2887C88.4066 90.3643 88.6694 90.4392 88.9386 90.5221C89.2054 90.6026 89.469 90.6831 89.7317 90.7636C90.2642 90.9289 90.7909 91.1012 91.3117 91.2804C91.5082 91.3424 91.6823 91.4028 91.8628 91.4672Z" fill="#371A45"/>
</g>
<path d="M9.71733 64.4558C13.6117 72.6898 19.9556 79.4957 27.8666 83.9267C28.5384 84.3058 29.2285 84.6673 29.9306 85.0183C33.7782 86.9165 37.8806 88.2373 42.1076 88.9387C44.3964 89.3171 46.7117 89.5096 49.0312 89.5143C49.8704 89.5143 50.7072 89.4909 51.5417 89.4442C66.8082 88.5788 81.1754 79.6545 88.373 64.8269C98.9804 42.9877 90.0096 16.6171 68.3426 5.92652C64.2812 3.91942 59.9345 2.56148 55.4588 1.90145C54.9499 1.82095 54.4356 1.75735 53.9212 1.70342C52.5462 1.54993 51.1734 1.46272 49.8028 1.44179C43.5032 1.35597 37.259 2.63673 31.4937 5.19717C30.5848 5.60129 29.6886 6.03654 28.8051 6.50291C20.5956 10.8506 13.9738 17.7211 9.90024 26.1179C3.79777 38.6809 4.17558 52.7404 9.71733 64.4558Z" fill="white"/>
<path d="M49.0312 89.6575C42.3874 89.6358 35.8351 88.0944 29.8683 85.1495C29.0967 84.7639 28.4194 84.4056 27.7971 84.0546C26.424 83.2839 25.0925 82.4401 23.8082 81.5269C17.7038 77.1755 12.8089 71.319 9.59116 64.517C3.78821 52.255 3.85451 38.2381 9.77168 26.0551C13.8592 17.6313 20.5027 10.7387 28.7389 6.37651C29.6071 5.91605 30.5185 5.47409 31.4363 5.06595C37.2207 2.49541 43.4864 1.20967 49.8076 1.29608C51.1783 1.3162 52.5689 1.40475 53.9403 1.55851C54.4787 1.61486 54.9987 1.68168 55.4843 1.75735C59.973 2.42022 64.3319 3.78276 68.405 5.7961C90.1103 16.5028 99.125 43.0143 88.5008 64.8881C81.5413 79.2246 67.3826 88.6883 51.5489 89.5859C50.715 89.6334 49.8683 89.6567 49.0312 89.6575ZM49.175 1.57783C43.106 1.58382 37.1045 2.86102 31.5513 5.32839C30.6359 5.73089 29.7341 6.17285 28.8715 6.63009C20.6891 10.9644 14.089 17.8124 10.0281 26.1814C4.14925 38.2832 4.07976 52.2115 9.84596 64.3938C13.0428 71.1502 17.9052 76.9676 23.9687 81.2902C25.2449 82.1974 26.5679 83.0358 27.9321 83.8019C28.5512 84.1504 29.2245 84.5063 29.9905 84.8895C32.0705 85.9157 34.2281 86.7738 36.4429 87.4558C40.5212 88.7161 44.7622 89.3612 49.028 89.3702C49.8595 89.3702 50.7054 89.346 51.5305 89.3009C67.2604 88.4098 81.324 79.0072 88.242 64.7641C98.7976 43.0288 89.8395 16.6952 68.2732 6.05531C64.2277 4.05481 59.8981 2.70069 55.4396 2.04152C54.9604 1.96585 54.442 1.89984 53.9076 1.84348C52.5441 1.69134 51.1631 1.60198 49.8012 1.58266C49.5919 1.57944 49.3832 1.57783 49.175 1.57783Z" fill="#371A45"/>
<g opacity="0.35">
<path opacity="0.35" d="M9.71761 64.4542C12.9204 71.2365 17.8006 77.0743 23.8891 81.4062C25.1693 82.3167 26.4968 83.1575 27.8661 83.9251C28.5378 84.3042 29.228 84.6657 29.9301 85.0167C33.7777 86.9149 37.8801 88.2357 42.1071 88.9371C44.3959 89.3156 46.7112 89.508 49.0307 89.5127C49.8699 89.5127 50.7067 89.4893 51.5411 89.4426C66.8077 88.5772 81.1749 79.6529 88.3725 64.8253C92.0859 57.2111 93.526 48.674 92.518 40.2507C91.7668 43.7217 90.6029 47.0887 89.0514 50.2788C86.3516 55.8406 81.9792 57.8805 77.5941 61.6641C70.2863 67.9746 61.762 74.3575 52.2201 74.8985C51.3862 74.9436 50.5494 74.9666 49.7096 74.9677C45.43 74.9581 41.1754 74.3108 37.0837 73.0469C34.861 72.3631 32.6959 71.5017 30.609 70.4709C29.9069 70.1199 29.2168 69.7585 28.545 69.3793C27.176 68.611 25.8485 67.7699 24.568 66.8596C18.4796 62.529 13.5993 56.6923 10.3966 49.9109C8.34241 45.5669 7.00427 40.9147 6.43474 36.1371C4.38299 45.6819 5.53783 55.6432 9.71761 64.4542Z" fill="#371A45"/>
</g>
<path d="M49.032 90.4875C44.6558 90.478 40.3051 89.8164 36.121 88.5241C33.8503 87.8257 31.6382 86.9465 29.5057 85.8949C28.7181 85.5013 28.0288 85.1366 27.3946 84.7792C25.9967 83.9931 24.6409 83.1332 23.3329 82.2031C17.1132 77.7703 12.1254 71.804 8.84593 64.8744C2.93596 52.3822 3.00385 38.1005 9.03204 25.6904C13.1964 17.1093 19.9648 10.0883 28.3555 5.64558C29.2405 5.17626 30.1655 4.72706 31.104 4.31006C36.9959 1.6914 43.3776 0.380186 49.8164 0.465321C51.2142 0.486252 52.6312 0.576413 54.0282 0.733391C54.5738 0.790547 55.1073 0.858973 55.6074 0.937059C60.1791 1.61245 64.6187 3.00081 68.7668 5.05229C90.8803 15.9626 100.064 42.9684 89.2413 65.2552C82.1507 79.8573 67.726 89.5022 51.5952 90.4167C50.7453 90.4626 49.8835 90.4835 49.032 90.4875ZM49.175 2.40862C43.2207 2.41377 37.3326 3.66659 31.8844 6.08753C30.985 6.49004 30.1008 6.9167 29.2549 7.36509C21.2276 11.6177 14.7525 18.3359 10.7677 26.5461C4.99994 38.4193 4.93524 52.0844 10.5896 64.0364C13.7269 70.6648 18.4983 76.3717 24.448 80.6116C25.7005 81.5018 26.9989 82.3243 28.3379 83.0758C28.9458 83.4195 29.6071 83.7689 30.362 84.1465C32.4014 85.1523 34.5167 85.9935 36.6881 86.6621C40.6895 87.898 44.8502 88.5308 49.0352 88.5402C49.8491 88.5402 50.6767 88.5169 51.4906 88.4726C66.9225 87.5975 80.725 78.3729 87.5072 64.4027C97.8622 43.0819 89.0751 17.2434 67.9193 6.80561C63.9483 4.84014 59.6978 3.50989 55.3206 2.86265C54.8414 2.78859 54.3421 2.72338 53.8213 2.66945C52.4786 2.51891 51.1264 2.43277 49.7884 2.41506C49.584 2.40943 49.3795 2.40862 49.175 2.40862Z" fill="#371A45"/>
<path d="M49.0331 90.9482C42.1927 90.9269 35.4465 89.3397 29.3039 86.3064C28.5051 85.908 27.811 85.5401 27.1696 85.1794C25.7577 84.387 24.3886 83.5196 23.068 82.5808C16.7849 78.1017 11.7465 72.0737 8.43403 65.0726C2.46414 52.4532 2.53204 38.0242 8.62253 25.4877C12.8277 16.8164 19.6655 9.72149 28.1433 5.23276C29.0379 4.75861 29.9724 4.30458 30.9213 3.88275C36.8737 1.23916 43.3205 -0.0833257 49.8246 0.00500502C51.2368 0.0259354 52.6682 0.116902 54.0796 0.275489C54.6299 0.332645 55.1707 0.402682 55.6803 0.483183C60.2966 1.16523 64.7796 2.56688 68.9684 4.63786C91.3087 15.6609 100.587 42.9444 89.6561 65.4574C82.4928 80.2133 67.9204 89.9532 51.625 90.8765C50.7632 90.9232 49.8925 90.9474 49.0331 90.9482ZM49.176 2.86924C43.2853 2.87495 37.4601 4.11459 32.0699 6.50951C31.1801 6.90477 30.3047 7.32982 29.4684 7.77258C21.5265 11.9797 15.1199 18.6259 11.1769 26.7483C5.47385 38.4951 5.40995 52.0137 11.0036 63.8377C14.1067 70.3951 18.8264 76.0409 24.7118 80.2358C25.9505 81.1171 27.2349 81.9313 28.5594 82.675C29.1625 83.0156 29.8175 83.3609 30.5643 83.7352C34.2859 85.5691 38.2534 86.8451 42.3411 87.5228C44.5547 87.8886 46.7939 88.0746 49.0371 88.0791C49.8422 88.0791 50.6609 88.0557 51.4669 88.0123C66.7326 87.1469 80.3865 78.0213 87.0977 64.1968C97.3417 43.1054 88.6488 17.5422 67.7191 7.21551C63.7914 5.27283 59.5875 3.95833 55.2585 3.31924C54.7857 3.24518 54.2923 3.18132 53.7785 3.12765C52.4469 2.97872 51.1066 2.89339 49.7847 2.87327C49.5813 2.87058 49.3784 2.86924 49.176 2.86924Z" fill="#371A45"/>
<path d="M15.7913 73.9324C40.4305 93.2599 75.8576 82.2313 79.2779 51.2568C81.607 30.1831 62.9322 11.6155 42.7061 10.6575C27.9859 9.95959 13.312 15.7694 5.99223 38.4989C5.99223 38.4989 4.29408 49.0655 6.79098 56.2897C9.28789 63.5139 12.9246 70.1126 12.9246 70.1126L15.7913 73.9324Z" fill="#371A45"/>
<g opacity="0.35">
<path opacity="0.35" d="M70.9149 25.0745C73.5507 30.6017 74.7952 36.7875 74.0859 43.2066C70.676 74.0612 35.5109 85.1204 10.8845 66.0988C12.0595 68.542 12.9237 70.1118 12.9237 70.1118L15.7913 73.9324C40.4304 93.2599 75.8575 82.2312 79.2778 51.2568C80.3609 41.4895 76.9263 32.2617 70.9149 25.0745Z" fill="#111A28"/>
</g>
<path d="M42.805 89.1608C40.614 89.1601 38.4255 89.0073 36.2553 88.7036L36.0835 88.6649C33.8048 87.9634 31.585 87.0805 29.4451 86.0245C28.6543 85.6292 27.9634 85.2638 27.3268 84.9047C25.9245 84.1175 24.5647 83.2557 23.2532 82.3231C17.0115 77.8754 12.0062 71.8886 8.71585 64.9348C2.78511 52.4063 2.853 38.0771 8.90116 25.6252C12.3874 18.4341 17.7116 12.3088 24.3259 7.87946L24.4217 7.81506L24.5296 7.7724C29.8908 5.62382 36.0316 4.69644 42.7923 5.01684C54.8287 5.58679 66.9146 11.7097 75.1114 21.3948C82.6477 30.2951 86.1422 41.1273 84.9521 51.8952C83.6573 63.596 78.3823 73.3818 69.6975 80.1881C62.2515 86.0237 52.7128 89.1608 42.805 89.1608ZM36.6451 86.4954C48.2022 88.0885 59.7458 85.1478 68.3324 78.4187C76.5324 71.9923 81.5118 62.7355 82.7411 51.6472C83.8634 41.5041 80.5525 31.2739 73.4197 22.8503C65.6103 13.6265 54.1218 7.79655 42.6876 7.25558C36.2976 6.95289 30.4995 7.81265 25.4585 9.8123C19.2179 14.0168 14.1941 19.8129 10.8988 26.6105C5.14782 38.4442 5.08632 52.0618 10.7215 63.9728C13.8467 70.5781 18.6002 76.2655 24.528 80.4916C25.7757 81.379 27.0694 82.1988 28.4035 82.9477C29.0106 83.2899 29.6696 83.6384 30.422 84.0144C32.4288 85.004 34.5096 85.8335 36.6451 86.4954Z" fill="#371A45"/>
<path d="M42.8529 84.9708C33.1145 84.9708 23.2235 81.5801 14.9173 75.0691L14.7695 74.9467L11.68 70.809C11.529 70.5345 7.95377 64.0171 5.44568 56.7607C2.86091 49.2805 4.51513 38.7155 4.58702 38.2695L4.63894 38.0562C11.0873 18.0323 23.9145 8.32946 42.773 9.22464C53.6025 9.74065 64.4656 15.2413 71.8357 23.9475C78.6195 31.959 81.7642 41.7134 80.6923 51.4154C79.1451 65.4146 71.0953 76.49 58.6027 81.8014C53.5978 83.9291 48.2509 84.9708 42.8529 84.9708ZM16.8135 72.9157C28.8883 82.3078 44.46 84.7019 57.4973 79.1578C69.0105 74.2625 76.4341 64.0348 77.8655 51.0982C78.8496 42.1924 75.9397 33.2116 69.6727 25.8103C62.8034 17.6958 52.6968 12.5662 42.642 12.0905C25.2556 11.2645 13.3965 20.2638 7.38106 38.8314C7.22131 39.9279 5.91535 49.3972 8.13429 55.8172C10.4075 62.3958 13.692 68.5364 14.1249 69.3302L16.8135 72.9157Z" fill="#371A45"/>
<path d="M76.006 51.6158C76.006 51.6786 76.006 51.7454 76.006 51.8082C76.1657 60.4001 81.2865 67.0487 87.5136 66.6953C93.787 66.3419 98.8032 59.0107 98.7217 50.3246C98.6554 43.6253 95.5706 38.0715 91.2797 36.0541C90.0108 35.4439 88.6098 35.1657 87.2061 35.2451C80.9399 35.6025 75.9205 42.9338 76.006 51.6158Z" fill="white"/>
<g opacity="0.35">
<path opacity="0.35" d="M76.01 51.8082C76.1698 60.4002 81.2906 67.0488 87.5177 66.6954C93.7911 66.342 98.8072 59.0107 98.7258 50.3246C98.7144 48.9202 98.5629 47.5205 98.2737 46.1466C97.0811 40.5236 89.481 39.5897 86.8731 44.704L84.067 50.2071C84.067 50.2071 82.4783 53.8964 78.8991 53.8964C77.6842 53.8964 76.7345 52.9972 76.01 51.8082Z" fill="#371A45"/>
</g>
<path d="M87.0319 68.1452C84.4184 68.1452 81.9382 67.1043 79.8279 65.1135C76.5466 62.0174 74.636 57.1036 74.5809 51.632C74.4906 42.206 80.1211 34.2131 87.1325 33.8154C89.9521 33.6544 92.6439 34.7009 94.9012 36.831C98.1825 39.9271 100.093 44.8409 100.147 50.3125C100.238 59.7384 94.6073 67.7306 87.5958 68.1291C87.4073 68.1396 87.2188 68.1452 87.0319 68.1452ZM87.6853 36.6692C87.5551 36.6692 87.4241 36.6692 87.2931 36.6804C81.7769 36.9928 77.351 43.6881 77.4277 51.6014C77.4724 56.2237 79.0963 60.4911 81.7737 63.0165C83.4511 64.6007 85.4008 65.3768 87.4353 65.2624C92.9515 64.9493 97.3773 58.254 97.3007 50.3383C97.2567 45.7151 95.6321 41.4477 92.9555 38.9232C91.3835 37.4436 89.5703 36.6684 87.6853 36.6684V36.6692Z" fill="#371A45"/>
<path d="M100.272 52.7843C100.791 46.0034 97.0829 40.1855 91.9897 39.7896C86.8964 39.3938 82.3468 44.5698 81.8279 51.3507C81.3091 58.1315 85.0173 63.9494 90.1106 64.3453C95.2039 64.7412 99.7534 59.5651 100.272 52.7843Z" fill="white"/>
<path d="M90.6528 64.513C89.4996 64.5116 88.363 64.2358 87.3356 63.7079C82.575 61.2792 80.3553 54.0889 82.3881 47.6793C83.5183 44.1148 85.7604 41.4002 88.5385 40.2257C90.5897 39.3595 92.8006 39.4336 94.7624 40.4342C99.523 42.8621 101.742 50.0525 99.7099 56.4628C98.5796 60.0266 96.3375 62.7419 93.5595 63.9164C92.6396 64.3081 91.6514 64.5109 90.6528 64.513ZM91.4515 39.9094C90.4903 39.9151 89.5399 40.114 88.6559 40.4946C85.9553 41.6345 83.7731 44.2846 82.67 47.7655C80.6795 54.0446 82.8298 61.0747 87.4706 63.4407C89.3804 64.4155 91.4483 64.4872 93.4484 63.6403C96.149 62.5012 98.3304 59.8511 99.4343 56.3694C101.425 50.0904 99.2745 43.0602 94.6338 40.6951C93.6499 40.1832 92.5596 39.9139 91.4523 39.9094H91.4515Z" fill="#371A45"/>
<g opacity="0.35">
<path opacity="0.35" d="M82.182 57.1359C81.587 54.8456 81.6133 52.3863 82.1429 50.0646C83.9353 55.1724 88.58 57.2172 92.9125 54.621C95.7081 52.9442 97.7361 49.7104 98.5533 46.1249C98.6683 46.4469 98.7689 46.785 98.86 47.132C100.372 52.9651 98.221 60.5757 93.6114 63.3377C89.0018 66.0997 83.6933 62.9658 82.182 57.1359Z" fill="#371A45"/>
</g>
<path d="M90.7702 66.1905C88.8245 66.1905 86.9682 65.4097 85.3778 63.9148C82.7148 61.4128 81.1085 57.1406 81.0821 52.4836C81.0366 44.5349 85.3555 38.0264 90.9156 37.6665C93.0307 37.5297 95.0643 38.3105 96.7841 39.927C99.4471 42.429 101.053 46.7004 101.079 51.3582C101.125 59.3069 96.8056 65.8146 91.2455 66.1752C91.0873 66.1857 90.9284 66.1905 90.7702 66.1905ZM91.3837 40.5243C91.2902 40.5243 91.196 40.5243 91.1001 40.5332C87.1782 40.7876 83.8946 46.2544 83.9297 52.4707C83.9529 56.3493 85.2197 59.843 87.3204 61.8161C88.1104 62.5583 89.3972 63.4261 91.065 63.3118C94.9877 63.0582 98.2705 57.5914 98.2346 51.3751C98.2122 47.4965 96.9454 44.0028 94.8447 42.0289C94.0994 41.3301 92.9093 40.5243 91.3837 40.5243Z" fill="#371A45"/>
<g opacity="0.7">
<path opacity="0.7" d="M29.7597 19.7341C30.0041 19.3863 28.4953 19.78 28.4953 19.78L27.4202 19.8605C27.4202 19.8605 25.5104 20.0835 24.5726 20.263C23.6349 20.4425 22.6908 20.6655 21.7706 20.9392C20.6629 21.2553 19.6701 21.8887 18.9126 22.7625C15.6262 26.6084 13.2631 31.1656 12.0066 36.0807C9.38033 46.2866 11.4475 54.0816 16.8726 61.5795C16.8726 61.5795 15.8574 56.1859 17.9206 45.5106C19.0748 39.535 20.9335 32.2866 29.7597 19.7341Z" fill="white"/>
</g>
<g opacity="0.7">
<path opacity="0.7" d="M67.6529 42.8642C67.9419 39.0879 65.5693 35.824 62.3537 35.574C59.1381 35.3241 56.2971 38.1828 56.0081 41.9591C55.7191 45.7354 58.0916 48.9993 61.3073 49.2492C64.5229 49.4992 67.3639 46.6405 67.6529 42.8642Z" fill="white"/>
</g>
<g opacity="0.7">
<path opacity="0.7" d="M64.4328 57.2522C64.6823 55.7084 63.8189 54.2821 62.5044 54.0663C61.1899 53.8505 59.9221 54.9271 59.6726 56.4708C59.4232 58.0146 60.2865 59.441 61.601 59.6567C62.9155 59.8725 64.1833 58.7959 64.4328 57.2522Z" fill="white"/>
</g>
<path d="M75.6753 82.2385C89.0393 78.6296 88.056 67.8183 86.4353 65.545C84.1773 62.3748 74.7496 63.6017 71.3229 70.8033C67.9682 77.8568 62.0231 75.3396 61.1556 86.1259C60.3768 95.799 63.4113 98.8942 66.1079 100.838C68.5529 102.597 79.733 105.587 85.6845 99.5938C95.2176 89.9884 93.5674 72.2306 93.5674 72.2306" fill="white"/>
<g opacity="0.35">
<path opacity="0.35" d="M76.6619 82.2611C76.6619 82.2611 77.2641 87.9694 80.1157 87.8559C82.9672 87.7424 85.0392 76.4521 85.0392 76.4521C85.0392 76.4521 82.4464 80.862 76.6619 82.2611Z" fill="#371A45"/>
</g>
<g opacity="0.35">
<path opacity="0.35" d="M85.6869 99.5938C79.737 105.59 68.5568 102.599 66.1127 100.838C63.4121 98.8943 60.3768 95.7998 61.1556 86.1276C61.1772 85.841 61.2059 85.5641 61.2355 85.296C61.9008 90.2662 64.0958 92.3536 66.1079 93.8026C68.5521 95.5631 79.7322 98.5522 85.6821 92.558C91.3397 86.8561 93.0618 78.2811 93.5243 72.2564L93.5674 72.2314C93.5674 72.2314 95.2177 89.99 85.6869 99.5938Z" fill="#371A45"/>
</g>
<path d="M75.5533 81.7765C77.8401 80.3766 80.0103 79.2214 81.8083 77.6709C82.6881 76.9108 83.4666 76.0393 84.1247 75.078C84.7694 74.1243 85.2566 73.0717 85.5672 71.961C85.8792 70.8476 85.984 69.6858 85.8764 68.534C85.8289 67.9909 85.7168 67.4555 85.5425 66.9393C85.4774 66.7473 85.3909 66.5633 85.2845 66.3911C85.1795 66.2504 85.0534 66.1271 84.9107 66.0256C84.5992 65.7881 84.1431 65.6005 83.6399 65.4895C83.1085 65.3749 82.5656 65.3236 82.0224 65.3365C80.8961 65.351 79.7372 65.6062 78.6405 66.0023C76.4471 66.8161 74.5045 68.311 73.2521 70.2624C73.1051 70.5119 72.9438 70.7534 72.8152 71.0143L72.6155 71.4007L72.3591 71.8797C72.1817 72.2017 72.0172 72.5285 71.8255 72.8457L71.1937 73.7626C70.3023 74.9548 69.1776 75.9627 68.0785 76.7814C66.9795 77.6001 65.9491 78.3012 65.1711 79.1159C64.3931 79.9306 63.8308 80.8676 63.4186 81.9496C63.2485 82.5131 63.0456 83.0573 62.9497 83.6667C62.8914 83.9653 62.8203 84.2575 62.7708 84.5602L62.663 85.4868C62.631 85.7983 62.5831 86.0994 62.5623 86.4182L62.5064 87.3729C62.4537 88.0113 62.4737 88.6392 62.4577 89.2728C62.4833 91.7796 62.8219 94.2816 63.8835 96.3126C64.4019 97.335 65.1311 98.1899 66.009 98.9539C66.2406 99.139 66.4619 99.3282 66.7119 99.5077C66.8341 99.5995 66.9635 99.6969 67.041 99.7428C67.1208 99.8032 67.251 99.8667 67.3605 99.9295C67.8794 100.194 68.4171 100.419 68.9692 100.603C71.3096 101.386 73.7643 101.764 76.2298 101.723C78.6668 101.676 81.0743 101.133 83.0232 99.9062C83.5073 99.6008 83.9619 99.2504 84.3811 98.8597L84.695 98.5658L85.0081 98.2285C85.2126 97.9999 85.4371 97.7906 85.6256 97.5467C86.4363 96.6217 87.1328 95.5921 87.7734 94.5271C88.4141 93.451 88.9712 92.3265 89.4396 91.1637C89.9207 89.9929 90.3322 88.7943 90.6721 87.5742C91.0116 86.349 91.2935 85.102 91.5164 83.8413C91.7392 82.5807 91.8486 81.2983 91.9389 80.0183C92.1578 77.4536 92.2584 74.9154 93.0971 72.2757V72.2628C93.1279 72.1658 93.1867 72.0801 93.266 72.0167C93.3452 71.9534 93.4413 71.9152 93.5422 71.907C93.643 71.8988 93.7439 71.921 93.8322 71.9707C93.9205 72.0205 93.9921 72.0955 94.038 72.1864C94.3735 72.8497 94.5676 73.513 94.7361 74.1884C94.8924 74.8576 94.9969 75.538 95.0485 76.2235C95.1456 77.5843 95.1159 78.9513 94.9598 80.3065C94.8 81.6614 94.5604 83.0049 94.3208 84.3493C94.0812 85.6937 93.78 87.0308 93.4118 88.3543C93.0411 89.6831 92.5927 90.9887 92.0691 92.2642C91.5477 93.5547 90.9288 94.8029 90.2176 95.9979C89.4987 97.1941 88.708 98.3598 87.7798 99.4216C87.5633 99.6985 87.3061 99.944 87.0705 100.206L86.7095 100.592L86.3029 100.976C85.7558 101.483 85.1632 101.937 84.5329 102.334C83.287 103.108 81.9291 103.681 80.5079 104.033C79.1279 104.379 77.7132 104.565 76.2913 104.587C73.4924 104.637 70.7055 104.207 68.0498 103.315C67.355 103.082 66.6786 102.797 66.0265 102.461C65.8492 102.36 65.6831 102.275 65.4946 102.147C65.2933 102.018 65.1615 101.916 65.0201 101.81C64.735 101.605 64.453 101.368 64.1718 101.141C63.0592 100.184 62.0471 98.9917 61.369 97.6514C60.6733 96.3191 60.2508 94.8998 59.9832 93.4935C59.7156 92.0871 59.6445 90.6815 59.6125 89.2921C59.6269 88.6022 59.6126 87.9051 59.6645 87.2232L59.7252 86.196C59.7435 85.8539 59.7995 85.5013 59.8354 85.1543L59.96 84.1078C60.0167 83.7576 60.0982 83.4058 60.1677 83.0548C60.2827 82.3537 60.5279 81.6509 60.7492 80.9505C61.266 79.5603 62.0695 78.1861 63.1358 77.1058C64.2022 76.0255 65.3724 75.2406 66.3716 74.4823C67.3708 73.7239 68.2287 72.9527 68.9276 72.031L69.4204 71.3178C69.5706 71.0682 69.7008 70.8017 69.8438 70.5466L70.0579 70.1529L70.3111 69.6586C70.4772 69.3278 70.6801 69.0146 70.8702 68.699C72.4789 66.193 74.9318 64.3206 77.6596 63.3055C79.0318 62.8096 80.4736 62.4868 81.9769 62.4634C82.7478 62.4462 83.5181 62.5211 84.2717 62.6864C85.0457 62.8643 85.846 63.1541 86.5945 63.7055C86.9862 63.9903 87.3298 64.3369 87.6121 64.7319C87.8673 65.1125 88.0724 65.5249 88.2223 65.9588C88.4742 66.6959 88.6394 67.4602 88.7143 68.2362C88.8638 69.7251 88.7647 71.2287 88.4212 72.6847C88.0823 74.1448 87.4933 75.5341 86.6807 76.7902C85.474 78.5858 83.8544 80.0607 81.96 81.0892C80.0656 82.1178 77.9525 82.6695 75.8009 82.6974C75.6938 82.6974 75.5896 82.662 75.5043 82.5968C75.419 82.5316 75.3571 82.4401 75.3282 82.3361C75.2992 82.2322 75.3048 82.1216 75.344 82.0212C75.3832 81.9207 75.4539 81.8359 75.5453 81.7797L75.5533 81.7765Z" fill="#371A45"/>
<path d="M80.8402 80.8483C80.9057 81.4118 80.8681 82.014 80.8346 82.592C80.8011 83.17 80.7116 83.7536 80.6485 84.3348C80.5854 84.916 80.5391 85.4924 80.5207 86.064C80.5023 86.6355 80.5111 87.1974 80.722 87.7408L80.7372 87.7803C80.7521 87.8197 80.7511 87.8634 80.7344 87.9021C80.7177 87.9408 80.6865 87.9714 80.6477 87.9871C80.6237 87.9965 80.5977 87.9998 80.5721 87.9969C80.5466 87.9939 80.522 87.9848 80.5007 87.9702C80.3494 87.8779 80.2066 87.772 80.0742 87.6539C79.9506 87.5276 79.8356 87.3931 79.7299 87.2514C79.634 87.1097 79.539 86.9616 79.4511 86.8094C79.3768 86.6589 79.2978 86.5067 79.2267 86.3497C78.9702 85.7371 78.7762 85.0997 78.6476 84.4475C78.5151 83.8159 78.439 83.1736 78.4199 82.5284C78.4199 81.8844 78.4503 81.2653 78.6292 80.6165C78.6991 80.3627 78.8544 80.1414 79.0683 79.9903C79.2823 79.8392 79.5417 79.7677 79.8022 79.788C80.0627 79.8084 80.3081 79.9193 80.4964 80.1018C80.6848 80.2844 80.8043 80.5272 80.8346 80.7887L80.8402 80.8483Z" fill="#371A45"/>
<path d="M28.4603 88.562C28.866 88.6747 29.3181 88.7809 29.7527 88.8775C30.1872 88.9741 30.6313 89.0635 31.0722 89.1392C31.9508 89.2905 32.8398 89.4064 33.6761 89.396H33.7137C33.8839 89.4 34.0471 89.4647 34.1744 89.5787C34.3017 89.6926 34.3847 89.8484 34.4087 90.0183C34.4326 90.1881 34.396 90.3611 34.3053 90.5063C34.2146 90.6515 34.0757 90.7595 33.9134 90.8112C32.9229 91.0873 31.9556 91.2032 30.9907 91.2942C30.5075 91.3368 30.0274 91.3634 29.5458 91.3843C29.0641 91.4053 28.5929 91.4165 28.0817 91.4101H28.0625C27.8737 91.408 27.6871 91.3684 27.5135 91.2936C27.3399 91.2189 27.1826 91.1104 27.0505 90.9743C26.9185 90.8383 26.8144 90.6773 26.744 90.5007C26.6737 90.3241 26.6386 90.1353 26.6407 89.945C26.6428 89.7547 26.6821 89.5667 26.7563 89.3917C26.8305 89.2167 26.9381 89.0581 27.0731 88.9251C27.2081 88.792 27.3678 88.6871 27.543 88.6162C27.7183 88.5453 27.9056 88.5099 28.0944 88.5121C28.218 88.5134 28.3409 88.5301 28.4603 88.562Z" fill="#371A45"/>
</g>
</g>
</g>
<defs>
<filter id="filter0_d_121_2" x="0" y="0" width="150" height="226" filterUnits="userSpaceOnUse" color-interpolation-filters="sRGB">
<feFlood flood-opacity="0" result="BackgroundImageFix"/>
<feColorMatrix in="SourceAlpha" type="matrix" values="0 0 0 0 0 0 0 0 0 0 0 0 0 0 0 0 0 0 127 0" result="hardAlpha"/>
<feOffset dy="4"/>
<feGaussianBlur stdDeviation="2"/>
<feComposite in2="hardAlpha" operator="out"/>
<feColorMatrix type="matrix" values="0 0 0 0 0 0 0 0 0 0 0 0 0 0 0 0 0 0 0.25 0"/>
<feBlend mode="normal" in2="BackgroundImageFix" result="effect1_dropShadow_121_2"/>
<feBlend mode="normal" in="SourceGraphic" in2="effect1_dropShadow_121_2" result="shape"/>
</filter>
<filter id="filter1_d_121_2" x="-0.000244141" y="0.000854492" width="149.999" height="225.997" filterUnits="userSpaceOnUse" color-interpolation-filters="sRGB">
<feFlood flood-opacity="0" result="BackgroundImageFix"/>
<feColorMatrix in="SourceAlpha" type="matrix" values="0 0 0 0 0 0 0 0 0 0 0 0 0 0 0 0 0 0 127 0" result="hardAlpha"/>
<feOffset dy="4"/>
<feGaussianBlur stdDeviation="2"/>
<feComposite in2="hardAlpha" operator="out"/>
<feColorMatrix type="matrix" values="0 0 0 0 0 0 0 0 0 0 0 0 0 0 0 0 0 0 0.25 0"/>
<feBlend mode="normal" in2="BackgroundImageFix" result="effect1_dropShadow_121_2"/>
<feBlend mode="normal" in="SourceGraphic" in2="effect1_dropShadow_121_2" result="shape"/>
</filter>
<clipPath id="clip0_121_2">
<rect width="142" height="218" fill="white" transform="translate(4)"/>
</clipPath>
</defs>
</svg>
