<svg width="183" height="275" viewBox="0 0 183 275" fill="none" xmlns="http://www.w3.org/2000/svg">
<g filter="url(#filter0_d_236_3)">
<path d="M74.0964 113.175C73.4179 124.697 69.5927 136.672 56.9567 138.343C40.1875 140.552 32.4945 131.072 33.8778 109.901C29.8461 108.997 26.9518 106.985 25.1949 103.865C24.123 101.957 23.415 100.148 22.9529 98.5066C22.0941 95.4982 21.8581 92.9355 22.2449 90.8185H72.346C73.9587 98.1134 74.5421 105.566 74.0964 113.175V113.175Z" fill="white"/>
<path fill-rule="evenodd" clip-rule="evenodd" d="M53.397 140.339C48.1066 140.339 43.6816 138.707 40.2104 135.463C32.5502 128.286 32.029 115.466 32.088 111.189C29.9247 110.442 25.8438 108.594 23.6706 104.72C19.3833 97.1107 20.465 90.7694 20.5141 90.504C20.6715 89.6683 21.3991 89.0686 22.2448 89.0686H72.346C73.172 89.0686 73.88 89.6388 74.057 90.4352C74.3126 91.5756 80.075 118.327 70.3596 132.189C67.2031 136.692 62.7781 139.346 57.1829 140.084C55.8783 140.254 54.6163 140.339 53.397 140.339V140.339ZM23.8673 92.5686C23.8476 94.5938 24.2115 98.5461 26.719 103.01C28.9315 106.932 34.212 108.181 34.271 108.191C35.1069 108.387 35.6871 109.154 35.6281 110.009C35.6182 110.167 34.7332 125.543 42.6098 132.907C46.0711 136.141 50.8206 137.39 56.7305 136.603C61.362 135.994 64.8824 133.89 67.4883 130.174C75.1583 119.231 71.933 98.143 70.9103 92.5686H23.8673Z" fill="#371A45"/>
<path d="M102.574 88.7343C106.265 66.7382 112.86 57.3066 122.359 60.4395C136.558 65.1094 147.041 80.938 147.739 87.5644C148.545 95.164 143.176 108.908 143.097 109.321L102.574 88.7343Z" fill="white"/>
<path d="M144.336 105.733C143.648 107.807 143.127 109.193 143.097 109.321L102.574 88.7343C103.256 84.6772 104.36 80.4595 105.888 76.0813C108.936 67.351 114.236 57.7555 122.369 60.4297C136.558 65.1094 147.041 80.938 147.739 87.5643C148.299 92.834 145.89 101.033 144.336 105.733Z" fill="white"/>
<g opacity="0.3">
<path opacity="0.3" d="M144.336 105.733C143.648 107.807 143.127 109.193 143.097 109.321L102.574 88.7343C103.256 84.6772 104.36 80.4595 105.888 76.0813C108.002 75.3144 110.372 75.2063 113.027 76.0223C130.088 81.2329 143.117 97.553 144.189 104.248C144.268 104.72 144.317 105.215 144.336 105.733V105.733Z" fill="#371A45"/>
</g>
<path fill-rule="evenodd" clip-rule="evenodd" d="M144.385 111.946L100.637 89.7075L100.843 88.4393C101.001 87.5151 104.786 65.5714 114.482 59.7119C117.127 58.1192 119.959 57.8046 122.909 58.7681C137.807 63.674 148.732 80.3087 149.479 87.3775C149.981 92.0671 148.476 99.4013 144.995 109.184C144.907 109.439 144.838 109.636 144.799 109.744L144.385 111.946ZM144.828 109.655L144.818 109.675C144.818 109.669 144.821 109.662 144.828 109.655ZM104.541 87.7609L142.104 106.853C145.841 96.0488 146.293 90.5137 146.008 87.7511C145.408 82.1472 135.653 66.6529 121.818 62.101C119.861 61.4521 118.061 61.6586 116.301 62.7105C109.841 66.6136 105.839 81.0854 104.541 87.7609V87.7609Z" fill="#371A45"/>
<path d="M125.201 88.8621C125.299 84.8607 127.276 76.2779 131.612 76.7105C135.958 77.1529 144.73 83.3761 142.193 95.105C140.226 104.199 125.102 92.8634 125.201 88.8621Z" fill="white"/>
<g opacity="0.3">
<path opacity="0.3" d="M142.448 93.7188C142.383 94.171 142.298 94.6331 142.193 95.105C140.226 104.199 125.102 92.8634 125.201 88.8621C125.25 86.8663 125.761 83.7301 126.804 81.1444C128.338 84.8607 136.421 91.487 142.448 93.7188Z" fill="#371A45"/>
</g>
<path fill-rule="evenodd" clip-rule="evenodd" d="M138.23 100.306C137.909 100.306 137.578 100.283 137.237 100.237C131.602 99.5686 123.352 92.7357 123.45 88.8228C123.529 85.431 124.807 79.0308 127.885 76.3173C129.036 75.2948 130.393 74.8328 131.789 74.9704C134.474 75.2457 138.436 77.2316 141.239 81.0855C143.274 83.8777 145.389 88.6459 143.904 95.4787C143.235 98.5854 141.19 100.306 138.23 100.306V100.306ZM126.951 88.9015C127.02 90.4745 133.254 96.393 137.827 96.7764C139.39 96.9141 140.138 96.3439 140.482 94.7315C141.691 89.1768 140.02 85.3622 138.407 83.1501C136.106 79.9844 132.979 78.608 131.445 78.4606C131.179 78.4311 130.757 78.4507 130.206 78.9423C128.22 80.6923 127.02 85.9324 126.951 88.9015V88.9015Z" fill="#371A45"/>
<path d="M134.139 78.9815C133.903 80.0728 133.696 81.2133 133.529 82.3341C133.352 83.4548 133.215 84.5756 133.136 85.6866C133.047 86.7975 133.018 87.8986 133.097 88.9309C133.146 89.4422 133.215 89.9337 133.333 90.3368C133.441 90.7399 133.657 91.025 133.677 90.9857C134.365 91.6641 134.365 92.775 133.677 93.4632C132.988 94.1416 131.887 94.1416 131.199 93.4632C130.825 93.0306 130.56 92.5685 130.422 92.1655C130.255 91.7525 130.176 91.3691 130.117 91.0053C130.009 90.2778 130.009 89.6093 130.029 88.9702C130.097 87.6823 130.294 86.4927 130.53 85.313C130.776 84.143 131.061 82.9928 131.386 81.8621C131.71 80.7217 132.054 79.6206 132.457 78.49C132.615 78.0377 133.116 77.792 133.569 77.9591C133.991 78.1066 134.227 78.5391 134.139 78.9619V78.9815Z" fill="#371A45"/>
<path d="M176.826 108.957C176.491 110.285 175.842 111.405 174.997 112.261C171.172 116.075 164.711 112.762 163.393 112.035C163.295 111.976 163.216 111.93 163.157 111.897C162.987 112.926 162.672 114.227 162.213 115.8C161.368 118.71 159.873 122.869 157.454 126.9C150.734 138.022 141.199 138.747 128.849 129.073L74.411 123.419L62.3552 122.171C55.5505 119.523 52.0138 109.832 51.745 93.0994C51.4991 77.2414 85.4637 77.4282 101.423 78.6964C132.625 81.1641 142.124 109.105 145.103 105.428C147.404 102.577 147.965 92.7061 151.023 89.5306C153.796 86.65 161.712 87.7315 169.392 94.1612C176.147 99.8339 177.75 105.222 176.826 108.957V108.957Z" fill="white"/>
<g opacity="0.3">
<path opacity="0.3" d="M176.826 108.957C176.492 110.285 175.843 111.406 174.997 112.261C171.172 116.075 164.711 112.762 163.394 112.035C163.197 107.414 162.007 102.636 163.354 102.518C165.105 102.37 166.953 114.542 176.826 108.957Z" fill="#371A45"/>
</g>
<g opacity="0.3">
<path opacity="0.3" d="M162.214 115.8C161.368 118.71 159.873 122.869 157.454 126.9C150.735 138.022 141.2 138.747 128.849 129.072L74.4111 123.419C79.3967 111.012 88.4237 95.6457 101.246 96.5797C122.595 98.1232 129.134 116.046 145.251 126.221C151.774 130.344 157.356 126.559 161.997 114.866C162.05 115.089 162.122 115.4 162.214 115.8V115.8Z" fill="#371A45"/>
</g>
<path fill-rule="evenodd" clip-rule="evenodd" d="M144.336 136.672C136.824 136.672 129.95 132.051 128.19 130.773L61.9424 123.891L61.7162 123.803C61.254 123.626 50.4078 119.103 49.9948 93.1289C49.9456 89.737 51.2239 86.7876 53.8003 84.3691C63.7419 75.0489 90.5182 76.0714 101.571 76.9464C123.804 78.7062 135.201 92.7455 141.327 100.286C142.33 101.525 143.442 102.891 144.169 103.599C144.799 102.302 145.359 100.06 145.861 98.0347C146.805 94.2693 147.778 90.3761 149.764 88.3115C153.609 84.3101 162.725 86.2961 170.513 92.8241C177.121 98.3592 178.675 103.295 178.812 106.46C178.93 109.223 178.016 111.73 176.236 113.5C172.578 117.147 167.307 115.712 164.387 114.463C163.659 117.383 162.046 122.672 158.949 127.804C156.028 132.641 152.144 135.532 147.414 136.407C146.392 136.593 145.359 136.672 144.336 136.672V136.672ZM62.847 120.46L129.537 127.391L129.93 127.696C130.019 127.765 138.702 134.45 146.795 132.956C150.492 132.268 153.57 129.928 155.95 125.995C160.109 119.094 161.417 111.671 161.437 111.602L161.869 109.056L164.072 110.403C164.161 110.452 170.523 114.247 173.758 111.022C174.83 109.95 175.38 108.387 175.302 106.618C175.154 103.127 172.657 99.185 168.261 95.5081C161.21 89.5994 154.209 88.7441 152.292 90.7399C150.944 92.1359 150.05 95.7145 149.263 98.8802C148.457 102.125 147.749 104.927 146.46 106.529C145.949 107.158 145.241 107.512 144.474 107.512C142.675 107.512 141.318 105.831 138.604 102.498C132.812 95.3606 122.024 82.0784 101.286 80.4365C84.2642 79.0896 63.4862 80.0924 56.1997 86.9253C54.351 88.6654 53.466 90.6809 53.5053 93.0699C53.8396 114.591 61.5883 119.762 62.847 120.46V120.46Z" fill="#371A45"/>
<path d="M164.229 102.449C164.367 103.255 164.475 104.032 164.573 104.838C164.665 105.631 164.744 106.431 164.809 107.237C164.927 108.839 164.986 110.472 164.898 112.153H164.888C164.839 113.126 164.013 113.873 163.039 113.824C162.076 113.765 161.328 112.939 161.378 111.966C161.387 111.858 161.397 111.75 161.427 111.641C161.771 110.226 162.017 108.722 162.184 107.198C162.263 106.431 162.328 105.664 162.381 104.897C162.43 104.13 162.469 103.344 162.489 102.597V102.577C162.499 102.085 162.892 101.702 163.384 101.712C163.806 101.722 164.16 102.036 164.229 102.449V102.449Z" fill="#371A45"/>
<path d="M143.589 102.99C144.159 103.698 144.671 104.376 145.182 105.084C145.693 105.785 146.188 106.5 146.667 107.227C147.611 108.682 148.506 110.196 149.194 111.838C149.391 112.29 149.174 112.802 148.732 112.988C148.329 113.156 147.876 113.008 147.65 112.654L147.64 112.634C146.775 111.297 145.713 110.039 144.592 108.84C144.028 108.243 143.451 107.656 142.861 107.08C142.281 106.519 141.662 105.939 141.072 105.428C140.334 104.789 140.255 103.678 140.895 102.951C141.524 102.213 142.635 102.135 143.373 102.774C143.451 102.833 143.53 102.911 143.589 102.99V102.99Z" fill="#371A45"/>
<path d="M136.086 106.608C133.883 112.92 129.37 118.976 121.582 121.542L113.361 116.223C118.199 113.568 121.772 109.819 124.079 104.976C124.506 104.071 124.879 103.196 125.2 102.351C127.456 96.4323 127.842 91.5919 126.361 87.8298C129.678 85.1753 132.733 85.3064 135.526 88.223C138.013 90.8087 138.771 98.9098 136.086 106.608V106.608Z" fill="white"/>
<g opacity="0.3">
<path opacity="0.3" d="M136.086 106.608C133.883 112.919 129.37 118.976 121.582 121.542L113.361 116.223C118.199 113.568 121.772 109.819 124.079 104.976C124.506 104.071 124.879 103.196 125.2 102.351C126.489 104.209 128.239 106.008 130.412 106.549C132.497 107.07 134.414 106.981 136.086 106.608V106.608Z" fill="#371A45"/>
</g>
<path d="M121.582 123.292C120.845 123.292 120.166 122.83 119.92 122.092C119.615 121.168 120.117 120.185 121.031 119.88C130.58 116.734 133.992 108.289 135.182 103.53C136.873 96.7173 135.732 90.9659 134.257 89.4322C132.114 87.2005 129.704 87.9182 128.397 88.6064C128.987 91.2609 129.606 97.4547 125.663 105.733C122.005 113.411 114.522 117.589 114.207 117.756C113.361 118.228 112.289 117.914 111.827 117.068C111.355 116.223 111.67 115.161 112.516 114.689C112.624 114.63 119.34 110.845 122.497 104.219C127.01 94.7609 124.748 88.5277 124.729 88.4589L124.276 87.2693L125.26 86.4632C127.413 84.7427 132.595 82.6387 136.784 87.0039C139.597 89.9336 140.354 97.2384 138.574 104.376C136.263 113.657 130.275 120.519 122.133 123.203C121.949 123.262 121.766 123.292 121.582 123.292V123.292Z" fill="#371A45"/>
<path d="M124.001 254.678C86.4079 275.56 39.0109 262.023 18.115 224.437C14.4963 217.929 11.9101 211.116 10.3072 204.204C9.60907 201.196 9.09773 198.168 8.76339 195.13C5.45937 164.928 20.121 134.273 48.3625 118.582C61.6179 111.219 76.1025 108.132 90.2134 108.879C116.095 110.245 140.718 124.491 154.239 148.814C158.497 156.473 161.319 164.534 162.804 172.704C168.615 204.607 153.934 238.044 124.001 254.678V254.678Z" fill="#FFA726"/>
<g opacity="0.3">
<path opacity="0.3" d="M124.001 254.678C86.4078 275.56 39.0108 262.023 18.1247 224.437C14.4962 217.919 11.91 211.116 10.3072 204.204C9.89416 202.434 9.54999 200.665 9.27466 198.885C23.9953 217.054 45.1862 228.026 67.5572 230.297L67.2032 229.923C66.5935 227.504 66.6624 224.948 67.508 222.5C69.9959 215.382 75.7779 210.457 87.0076 214.37C93.419 216.601 97.6179 222.127 97.9325 227.947C104.796 226.148 111.542 223.474 118.032 219.865C118.373 219.675 118.714 219.485 119.055 219.295C117.914 214.783 119.163 209.375 122.772 205.05C127.934 198.885 136.086 197.066 141.652 200.616C150.994 189.713 157.356 176.715 160.375 162.952C161.407 166.176 162.213 169.43 162.803 172.694C168.615 204.607 153.934 238.044 124.001 254.678Z" fill="#371A45"/>
</g>
<g opacity="0.4">
<path opacity="0.4" d="M164.819 172.891C163.246 168.015 161.181 163.227 158.605 158.577C143.333 131.108 114.168 116.243 84.7558 117.894V117.904C85.8867 122.407 81.1371 127.47 74.1652 129.22C67.1737 130.98 60.605 128.758 59.4742 124.255C59.4217 124.045 59.3824 123.836 59.3562 123.626C56.4258 124.815 53.5348 126.192 50.7126 127.765C20.1701 144.734 5.21348 178.869 11.1824 211.41C-0.17522 176.106 14.565 136.554 48.2149 117.855C86.516 96.5797 134.827 110.373 156.107 148.666C160.424 156.433 163.305 164.613 164.819 172.891Z" fill="white"/>
</g>
<path fill-rule="evenodd" clip-rule="evenodd" d="M86.703 266.24C79.3574 266.24 71.9627 265.218 64.7057 263.143C44.2325 257.294 27.2601 243.834 16.9252 225.233C-4.42313 186.822 9.46163 138.216 47.8807 116.882C86.29 95.5376 134.906 109.42 156.255 147.821C166.589 166.432 169.067 187.943 163.217 208.412C157.376 228.871 143.904 245.84 125.299 256.173C113.292 262.848 100.067 266.24 86.703 266.24V266.24ZM86.4571 110.53C73.9785 110.53 61.323 113.598 49.6606 120.087C13.0115 140.438 -0.234098 186.812 20.1309 223.444C29.9938 241.2 46.1795 254.039 65.7087 259.614C85.2378 265.188 105.76 262.829 123.519 252.968C141.268 243.107 154.111 226.924 159.696 207.399C165.272 187.874 162.912 167.356 153.039 149.61C139.164 124.629 113.194 110.53 86.4571 110.53Z" fill="#371A45"/>
<path d="M97.6869 222.982C98.0704 223.749 98.4047 224.555 98.6407 225.401C98.8669 226.246 99.0341 227.111 99.0931 227.996C99.1717 228.881 99.1324 229.776 99.0242 230.66C98.9062 231.526 98.7489 232.371 98.5227 233.226C98.0605 234.908 97.3624 236.589 96.32 238.103C95.2679 239.607 93.8617 240.915 92.2392 241.849C90.6068 242.783 88.8073 243.323 87.0176 243.569C85.2181 243.825 83.4383 243.795 81.6978 243.638C80.8226 243.53 79.9868 243.412 79.1116 243.235C78.2266 243.058 77.3613 242.812 76.5057 242.517C75.6502 242.222 74.8242 241.858 74.0179 241.436C73.2214 241.013 72.4347 240.541 71.7169 239.99C70.2615 238.899 68.9537 237.601 67.8917 236.107C66.8297 234.613 65.9938 232.941 65.5317 231.152C64.5385 227.583 65.0105 223.621 66.8395 220.446C68.6292 217.231 71.6579 214.901 74.9422 213.711C78.2463 212.521 81.8551 212.404 85.1198 213.298C85.405 213.377 85.582 213.682 85.5033 213.977C85.4246 214.242 85.1788 214.399 84.9133 214.38C81.7469 214.036 78.5609 214.517 75.8174 215.825C73.0641 217.113 70.7827 219.256 69.5142 221.861C68.2555 224.457 67.9999 227.485 68.8652 230.198C69.6912 232.922 71.5104 235.36 73.8704 237.051C75.0602 237.886 76.3484 238.604 77.7251 239.086C78.4134 239.342 79.1214 239.548 79.8491 239.695C80.5768 239.843 81.3536 239.971 82.1108 240.059C83.6153 240.246 85.1296 240.325 86.585 240.158C88.0403 240.01 89.4268 239.617 90.6855 238.997C93.2028 237.749 95.0417 235.33 96.0545 232.45C96.3102 231.742 96.5364 230.995 96.7134 230.247C96.8904 229.53 96.9887 228.783 97.028 228.035C97.1067 226.531 96.8904 224.988 96.438 223.493L96.4282 223.483C96.32 223.12 96.5167 222.746 96.8805 222.628C97.205 222.53 97.5394 222.687 97.6869 222.982V222.982Z" fill="#371A45"/>
<g opacity="0.4">
<path opacity="0.4" d="M104.934 182.329C101.197 184.168 96.9589 183.883 93.6155 181.936C95.5035 182.555 97.5784 182.673 99.6532 182.152C105.465 180.687 108.995 174.798 107.53 168.978C106.074 163.168 100.174 159.638 94.3629 161.103C94.0187 161.192 93.6844 161.29 93.3599 161.408C93.6844 161.211 94.0089 161.025 94.353 160.857C100.283 157.938 107.461 160.376 110.381 166.304C113.302 172.242 110.863 179.409 104.934 182.329V182.329Z" fill="white"/>
</g>
<g opacity="0.3">
<path opacity="0.3" d="M60.3494 184.06C62.5521 192.829 57.2322 201.727 48.4608 203.929C39.6894 206.131 30.7902 200.802 28.5875 192.043C26.3848 183.273 31.7145 174.376 40.4859 172.173C49.2475 169.971 58.1467 175.29 60.3494 184.06Z" fill="#371A45"/>
</g>
<g opacity="0.4">
<path opacity="0.4" d="M67.2128 181.553C70.8315 191.994 65.2953 203.398 54.8522 207.016C44.3993 210.634 33.0024 205.099 29.3837 194.648C29.3116 194.445 29.2428 194.238 29.1772 194.029C32.6189 201.677 41.3903 205.561 49.4635 202.769C58.0088 199.809 62.542 190.489 59.5821 181.946C56.6223 173.402 47.2904 168.87 38.7451 171.829C36.4146 172.635 34.3889 173.914 32.7271 175.526C34.9986 172.694 38.0666 170.463 41.7542 169.185C52.1972 165.567 63.604 171.102 67.2128 181.553Z" fill="white"/>
</g>
<path d="M32.0193 175.339C34.5956 172.409 38.3028 170.414 42.2657 169.804C46.2482 169.145 50.4569 169.942 54.0264 171.937C55.8063 172.95 57.4091 174.267 58.7661 175.811L59.2676 176.391L59.5233 176.686L59.7495 177.001C60.0346 177.423 60.3395 177.846 60.6246 178.279L61.3818 179.626C61.6276 180.078 61.8145 180.56 62.021 181.031C62.7683 182.949 63.2698 184.974 63.378 187.048C63.4763 189.113 63.2698 191.197 62.6897 193.183C62.139 195.179 61.2245 197.057 60.0346 198.748C58.8546 200.439 57.4091 201.943 55.7473 203.152C54.0756 204.361 52.1974 205.266 50.2504 205.875C49.7489 206.003 49.2671 206.18 48.7656 206.269L47.2611 206.534C46.2384 206.623 45.2255 206.721 44.2029 206.652C42.1772 206.573 40.1613 206.19 38.2832 205.443C36.4148 204.686 34.6645 203.644 33.1501 202.356C30.0821 199.79 28.0564 196.142 27.3386 192.347C27.2796 192.052 27.4763 191.767 27.7713 191.708C28.0466 191.659 28.3121 191.816 28.3908 192.072L28.4006 192.082C29.5806 195.513 31.685 198.551 34.5661 200.557C35.9821 201.569 37.5457 202.375 39.1878 202.896C40.83 203.408 42.5509 203.663 44.252 203.634C45.0977 203.653 45.9434 203.516 46.7792 203.408L48.0281 203.123C48.4411 203.034 48.8344 202.867 49.2376 202.749C50.8306 202.198 52.3449 201.412 53.6724 200.38C56.2881 198.295 58.3335 195.434 59.1791 192.19C59.6118 190.578 59.8183 188.916 59.7495 187.245C59.6708 185.574 59.2775 183.922 58.6776 182.369C57.537 179.203 55.2064 176.558 52.3744 174.72C50.9387 173.815 49.3457 173.166 47.6937 172.753C46.0417 172.34 44.3012 172.164 42.5804 172.34C39.1092 172.557 35.7166 173.992 32.9633 176.303C32.6781 176.548 32.2553 176.509 32.0095 176.224C31.7931 175.968 31.803 175.585 32.0193 175.339V175.339Z" fill="#371A45"/>
<path d="M137.797 198.58C138.613 198.669 139.429 198.816 140.236 199.062C141.032 199.308 141.809 199.642 142.546 200.065C144.041 200.901 145.329 202.09 146.342 203.496C147.345 204.922 148.043 206.554 148.417 208.245C148.791 209.946 148.83 211.696 148.604 213.396C148.378 215.107 147.886 216.769 147.188 218.332C146.47 219.885 145.555 221.34 144.484 222.667C143.363 223.955 142.124 225.135 140.737 226.138C139.331 227.121 137.817 227.957 136.194 228.547C134.572 229.127 132.851 229.471 131.11 229.559C129.36 229.638 127.58 229.461 125.889 228.871C124.197 228.311 122.614 227.396 121.287 226.207C119.959 225.017 118.887 223.533 118.199 221.91C116.793 218.656 116.832 215.028 117.815 211.863C118.337 210.27 119.054 208.776 119.959 207.409C120.883 206.052 121.985 204.853 123.184 203.791C123.411 203.594 123.755 203.614 123.961 203.84C124.138 204.047 124.138 204.342 123.971 204.548L123.961 204.568C122.998 205.738 122.162 206.986 121.473 208.304C120.834 209.641 120.323 211.017 120.028 212.443C119.428 215.264 119.723 218.214 120.933 220.632C122.172 223.041 124.374 224.83 126.921 225.568C129.488 226.315 132.349 226.089 134.945 225.125C136.233 224.614 137.472 223.975 138.633 223.179C139.764 222.363 140.806 221.399 141.74 220.347C142.645 219.276 143.441 218.106 144.08 216.857C144.69 215.599 145.133 214.262 145.408 212.905C145.457 212.561 145.546 212.217 145.565 211.873L145.644 210.84L145.624 209.798C145.624 209.454 145.546 209.12 145.516 208.776C145.329 207.409 144.897 206.082 144.208 204.892C142.871 202.454 140.413 200.684 137.561 199.908H137.541C137.177 199.809 136.971 199.436 137.069 199.072C137.158 198.748 137.472 198.541 137.797 198.58V198.58Z" fill="#371A45"/>
<g opacity="0.3">
<path opacity="0.3" d="M107.53 168.978C108.995 174.798 105.465 180.687 99.6532 182.152C93.8319 183.607 87.9417 180.088 86.4765 174.267C85.0212 168.457 88.5513 162.568 94.3629 161.103C100.174 159.638 106.074 163.168 107.53 168.978V168.978Z" fill="#371A45"/>
</g>
<path d="M87.7648 178.377C86.1816 176.47 85.3261 173.904 85.3753 171.328C85.3851 170.03 85.6605 168.732 86.1128 167.494C86.575 166.265 87.2535 165.114 88.109 164.082C89.82 162.057 92.2488 160.572 94.9039 160.071C96.2314 159.825 97.5884 159.756 98.9356 159.943C100.273 160.15 101.591 160.553 102.79 161.172C105.209 162.391 107.146 164.475 108.277 166.914C108.838 168.133 109.172 169.46 109.29 170.777C109.438 172.105 109.3 173.442 108.985 174.72C108.651 175.998 108.149 177.227 107.412 178.308C106.684 179.39 105.789 180.343 104.767 181.12C102.741 182.683 100.175 183.43 97.7457 183.312C97.4409 183.293 97.2049 183.037 97.2245 182.742C97.2344 182.477 97.4212 182.27 97.667 182.221H97.6867C99.8501 181.818 101.836 180.864 103.282 179.38C104.01 178.652 104.629 177.826 105.101 176.932C105.553 176.027 105.868 175.074 106.025 174.1C106.124 173.609 106.134 173.117 106.153 172.626L106.114 171.888C106.114 171.643 106.055 171.407 106.025 171.161C105.868 170.207 105.583 169.273 105.15 168.408C104.246 166.707 102.849 165.272 101.128 164.426C100.273 164.013 99.3682 163.709 98.4242 163.571C97.4802 163.433 96.5067 163.453 95.5627 163.61C93.6649 163.886 91.9047 164.878 90.5083 166.245C89.82 166.943 89.2595 167.769 88.817 168.654C88.3745 169.539 88.0402 170.502 87.9222 171.515C87.5878 173.53 87.9517 175.683 88.9055 177.63V177.64C89.0727 177.974 88.9252 178.387 88.5908 178.554C88.3057 178.692 87.9615 178.613 87.7648 178.377V178.377Z" fill="#371A45"/>
<g opacity="0.3">
<path opacity="0.3" d="M145.526 164.859C144.061 166.619 141.878 166.914 139.764 165.901C140.845 166.127 141.917 165.97 142.842 165.35C145.428 163.62 145.87 158.96 143.825 154.939C141.78 150.928 138.033 149.07 135.447 150.8C135.296 150.905 135.152 151.016 135.014 151.134C135.132 150.957 135.257 150.787 135.388 150.623C137.708 147.831 141.848 148.745 144.651 152.678C147.453 156.61 147.847 162.067 145.526 164.859V164.859Z" fill="white"/>
<path opacity="0.3" fill-rule="evenodd" clip-rule="evenodd" d="M142.163 166.687C141.367 166.687 140.521 166.481 139.675 166.078L138.151 165.35L139.803 165.704C140.875 165.93 141.878 165.744 142.724 165.183C145.221 163.512 145.634 158.95 143.648 155.027C142.458 152.697 140.609 150.997 138.702 150.505C137.551 150.2 136.46 150.367 135.555 150.967C135.417 151.065 135.28 151.164 135.152 151.292L134.041 152.265L134.847 151.026C134.965 150.839 135.093 150.672 135.231 150.495C136.194 149.335 137.463 148.755 138.938 148.804C141.032 148.883 143.176 150.249 144.818 152.56C147.66 156.561 148.053 162.136 145.684 164.987C144.759 166.107 143.52 166.687 142.163 166.687V166.687ZM141.17 166.176C142.802 166.51 144.307 166.009 145.369 164.731C147.631 162.008 147.237 156.65 144.484 152.796C142.92 150.593 140.885 149.286 138.918 149.217C137.797 149.178 136.814 149.532 136.007 150.269C136.863 149.905 137.817 149.856 138.81 150.112C140.826 150.633 142.763 152.412 144.002 154.85C146.087 158.95 145.615 163.738 142.95 165.518C142.409 165.881 141.809 166.098 141.17 166.176V166.176Z" fill="#371A45"/>
</g>
<g opacity="0.3">
<path opacity="0.3" d="M143.825 154.939C145.87 158.96 145.428 163.62 142.832 165.35C140.246 167.081 136.499 165.223 134.454 161.211C132.418 157.19 132.861 152.53 135.447 150.8C138.033 149.07 141.78 150.928 143.825 154.939Z" fill="#371A45"/>
</g>
<g opacity="0.4">
<path opacity="0.4" d="M145.88 164.967C144.74 165.724 143.412 165.862 142.065 165.478C142.144 165.439 142.212 165.4 142.281 165.35C144.867 163.62 145.31 158.96 143.265 154.939C141.563 151.577 138.643 149.728 136.224 150.239C136.598 149.64 137.079 149.129 137.64 148.755C140.521 146.828 144.7 148.893 146.982 153.366C149.253 157.839 148.761 163.03 145.88 164.967V164.967Z" fill="white"/>
</g>
<path d="M135.713 164.121C134.464 163.079 133.52 161.683 132.871 160.159C132.222 158.626 131.878 156.915 132.025 155.136C132.094 154.241 132.291 153.327 132.694 152.432C133.097 151.547 133.716 150.672 134.601 150.013C135.486 149.355 136.598 148.971 137.699 148.942C138.79 148.912 139.813 149.178 140.688 149.601C142.448 150.456 143.717 151.793 144.651 153.258C145.585 154.723 146.165 156.355 146.431 158.026C146.677 159.707 146.569 161.467 145.949 163.109C145.615 163.915 145.162 164.702 144.513 165.331C143.864 165.96 143.029 166.412 142.163 166.54C141.868 166.579 141.583 166.373 141.544 166.068C141.504 165.842 141.622 165.616 141.819 165.508L141.839 165.498C142.979 164.849 143.56 163.709 143.756 162.46C143.855 161.831 143.874 161.192 143.815 160.553C143.756 159.914 143.628 159.275 143.461 158.645C143.097 157.397 142.517 156.207 141.77 155.204C141.032 154.192 140.098 153.356 139.144 152.914C138.171 152.471 137.355 152.501 136.706 152.933C136.027 153.356 135.457 154.369 135.241 155.548C134.995 156.738 135.034 158.075 135.3 159.383C135.536 160.71 136.047 162.008 136.745 163.237L136.755 163.256C136.942 163.591 136.824 164.013 136.489 164.19C136.234 164.338 135.929 164.298 135.713 164.121V164.121Z" fill="#371A45"/>
<g opacity="0.4">
<path opacity="0.4" d="M97.1656 141.293C94.2844 142.709 91.0394 142.483 88.463 140.988C89.9085 141.47 91.5114 141.558 93.1044 141.155C97.5688 140.035 100.283 135.492 99.1618 131.029C98.0408 126.556 93.5076 123.842 89.0334 124.973C88.7679 125.032 88.522 125.11 88.2664 125.199C88.5122 125.051 88.7679 124.914 89.0334 124.776C93.5862 122.535 99.1126 124.412 101.355 128.974C103.597 133.536 101.718 139.051 97.1656 141.293V141.293Z" fill="white"/>
</g>
<g opacity="0.3">
<path opacity="0.3" d="M99.1619 131.029C100.283 135.492 97.5688 140.035 93.1045 141.155C88.6303 142.276 84.0971 139.563 82.9761 135.089C81.8551 130.626 84.5691 126.094 89.0335 124.973C93.5076 123.842 98.0408 126.556 99.1619 131.029V131.029Z" fill="#371A45"/>
</g>
<path d="M83.8315 138.334C82.5433 136.879 81.8255 134.853 81.8353 132.808C81.8353 130.744 82.5826 128.65 83.9397 127.008C85.3065 125.386 87.2437 124.176 89.3775 123.764C90.4395 123.567 91.531 123.508 92.6127 123.665C93.6846 123.823 94.7466 124.147 95.7102 124.648C97.6474 125.631 99.2011 127.303 100.096 129.259C100.548 130.242 100.804 131.304 100.892 132.366C101.001 133.428 100.892 134.499 100.627 135.512C100.352 136.535 99.9288 137.508 99.3388 138.363C98.7389 139.209 98.0309 139.956 97.2049 140.556C95.5824 141.765 93.5371 142.325 91.6392 142.168C91.3344 142.148 91.1082 141.883 91.1377 141.578C91.1574 141.332 91.3442 141.126 91.5802 141.086L91.59 141.077C94.8842 140.418 97.3032 137.773 97.6572 134.883C97.8834 133.457 97.5884 131.992 96.9689 130.763C96.3002 129.535 95.2874 128.502 94.0484 127.903C93.4289 127.608 92.7799 127.391 92.0915 127.283C91.413 127.185 90.7149 127.195 90.0364 127.303C88.6597 127.499 87.3813 128.188 86.3587 129.171C85.8572 129.682 85.4245 130.262 85.0902 130.911C84.746 131.55 84.4805 132.248 84.3723 132.995C84.0872 134.48 84.3133 136.082 84.9722 137.586V137.606C85.1295 137.95 84.9722 138.353 84.6182 138.511C84.3428 138.629 84.0282 138.55 83.8315 138.334V138.334Z" fill="#371A45"/>
<path d="M47.4773 134.322C47.1037 132.14 49.8669 128.424 54.1542 126.801C58.4514 125.179 62.2274 126.369 63.0141 128.443" fill="#FFA726"/>
<path d="M46.8577 134.431C46.6611 133.9 46.6414 133.349 46.7004 132.828C46.7496 132.307 46.8971 131.825 47.0741 131.363C47.4281 130.429 47.9493 129.603 48.5589 128.856C49.7881 127.382 51.3713 126.231 53.1413 125.474C54.9015 124.727 56.8878 124.363 58.8643 124.639C59.8477 124.786 60.8408 125.091 61.7357 125.651C62.1683 125.936 62.5912 126.271 62.9452 126.703C63.1123 126.919 63.2697 127.155 63.3975 127.401C63.5155 127.657 63.604 127.922 63.6532 128.198C63.722 128.581 63.4663 128.945 63.0828 129.004C62.837 129.053 62.5912 128.955 62.4338 128.778L62.365 128.689C61.952 128.207 61.3817 127.912 60.7228 127.726C60.0738 127.549 59.3658 127.48 58.648 127.49C57.2221 127.519 55.7668 127.873 54.3803 128.433C52.9938 128.994 51.6958 129.79 50.5453 130.764C49.9749 131.255 49.4439 131.796 49.0014 132.376C48.5491 132.956 48.2049 133.585 48.0968 134.214L48.0771 134.322C48.0181 134.667 47.6936 134.903 47.3396 134.834C47.1134 134.794 46.9266 134.637 46.8577 134.431V134.431Z" fill="#371A45"/>
<g opacity="0.3">
<path opacity="0.3" d="M47.0251 135.266C46.0123 133.054 48.8639 129.584 53.3971 127.509C57.9303 125.445 62.4242 125.563 63.4272 127.785C64.44 129.997 61.5884 133.467 57.0552 135.532C52.522 137.596 48.0379 137.478 47.0251 135.266V135.266Z" fill="#371A45"/>
</g>
<g opacity="0.3">
<path opacity="0.3" d="M29.8069 150.938C30.1412 150.485 30.4657 150.043 30.8197 149.6C30.4756 150.043 30.1412 150.485 29.8069 150.938Z" fill="#293856"/>
</g>
<g opacity="0.3">
<path opacity="0.3" d="M112.171 111.71C111.414 114.099 110.421 116.518 109.093 118.828C108.326 120.175 107.451 121.483 106.448 122.731C105.524 123.891 104.482 124.992 103.331 126.015C100.804 128.256 97.6178 129.466 94.2941 130.006C86.7421 131.245 78.541 129.033 76.1909 127.539C73.1228 125.592 69.75 122.702 69.2288 115.21C69.2026 114.863 69.1829 114.502 69.1698 114.129C67.5866 114.365 65.9838 114.522 64.3809 114.61C63.3517 114.669 62.3225 114.699 61.2933 114.699C58.4612 114.689 55.6096 114.463 52.7677 114.001C50.4175 113.608 48.0673 113.067 45.7467 112.359C43.0458 111.54 40.3875 110.491 37.7718 109.213C36.9163 108.78 36.0608 108.348 35.2348 107.876C33.5336 106.932 31.9012 105.9 30.3377 104.799C27.6631 102.911 25.1949 100.797 22.9529 98.5066C22.0941 95.4982 21.8581 92.9355 22.2449 90.8185H72.346C73.526 96.1405 74.1455 101.951 74.2045 108.25C74.4503 108.21 74.706 108.171 74.9518 108.141C75.6894 108.023 76.417 107.935 77.1545 107.846C77.4594 107.807 77.7642 107.778 78.0592 107.748H78.069C78.4034 107.709 78.7475 107.679 79.0819 107.65C79.0884 107.65 79.0917 107.65 79.0917 107.65C79.426 107.617 79.7571 107.588 80.0849 107.561H80.1144C80.4487 107.532 80.7929 107.502 81.1272 107.483C81.8156 107.443 82.5006 107.411 83.1824 107.384C83.5167 107.365 83.8511 107.355 84.1952 107.345C84.1952 107.345 84.1985 107.345 84.2051 107.345C84.5394 107.339 84.877 107.332 85.2179 107.325C85.5522 107.325 85.8964 107.316 86.2308 107.316C86.5848 107.316 86.9322 107.319 87.2731 107.325C87.4698 107.325 87.6664 107.329 87.8631 107.335H87.8828C88.086 107.342 88.2925 107.345 88.5023 107.345C88.8366 107.358 89.1677 107.371 89.4954 107.384C89.6921 107.394 89.8986 107.404 90.0953 107.414H90.1149C90.4001 107.424 90.6754 107.443 90.9606 107.463C91.3343 107.483 91.6981 107.502 92.0718 107.542C92.1111 107.542 92.1406 107.542 92.1701 107.542C92.5438 107.571 92.9175 107.601 93.2813 107.63C93.4878 107.66 93.6943 107.669 93.9008 107.699C94.4384 107.751 94.9759 107.807 95.5135 107.866C95.52 107.866 95.5233 107.866 95.5233 107.866C95.8576 107.905 96.2018 107.955 96.5361 107.994C96.5427 107.994 96.546 107.994 96.546 107.994C96.7328 108.023 96.9295 108.053 97.1261 108.073C97.1458 108.079 97.1655 108.082 97.1852 108.082C97.4507 108.122 97.7063 108.161 97.9522 108.2C98.3848 108.259 98.8077 108.328 99.2305 108.397C99.3485 108.427 99.4665 108.436 99.5943 108.466C99.6632 108.476 99.7222 108.485 99.8008 108.495C100.404 108.6 101.007 108.715 101.61 108.839C102.289 108.967 102.957 109.115 103.616 109.262C103.951 109.341 104.285 109.419 104.619 109.498C104.954 109.577 105.278 109.655 105.612 109.744H105.622C105.947 109.832 106.281 109.911 106.606 110C106.94 110.088 107.264 110.176 107.589 110.275H107.599C107.923 110.363 108.248 110.462 108.582 110.56C108.916 110.658 109.241 110.757 109.565 110.855C110.221 111.058 110.87 111.268 111.512 111.484C111.729 111.563 111.945 111.632 112.171 111.71V111.71Z" fill="#371A45"/>
</g>
<path d="M11.2709 31.8989C15.6172 23.0113 22.0876 15.8639 29.7773 10.7712C31.3212 9.73895 32.9142 8.80497 34.5367 7.94964C35.6249 7.37942 36.7295 6.84524 37.8505 6.34712C41.3709 4.79376 45.0584 3.62382 48.8344 2.85697C52.6105 2.08029 56.4848 1.7067 60.3887 1.76569C62.08 1.78535 63.7714 1.89022 65.4627 2.08029C66.092 2.14911 66.7312 2.22776 67.3507 2.32608C72.7296 3.10276 78.0789 4.73477 83.212 7.24178C109.89 20.2979 120.933 52.5055 107.874 79.1781C99.0142 97.2876 81.324 108.181 62.5324 109.243C61.5031 109.295 60.4739 109.321 59.4447 109.321C56.6028 109.321 53.761 109.085 50.9191 108.623C48.5689 108.24 46.2187 107.689 43.8981 106.981C41.2037 106.155 38.5389 105.113 35.9232 103.835C35.0578 103.403 34.2122 102.96 33.3862 102.498C31.685 101.554 30.0526 100.532 28.4891 99.421C20.8191 94.0137 14.9092 86.8368 11.0447 78.7259C4.22032 64.4114 3.75815 47.2457 11.2709 31.8989V31.8989Z" fill="white"/>
<path fill-rule="evenodd" clip-rule="evenodd" d="M59.4446 109.498C56.5634 109.498 53.692 109.252 50.8895 108.79C48.5 108.407 46.1203 107.846 43.8488 107.148C41.125 106.313 38.4306 105.251 35.8444 103.993C34.9004 103.521 34.0646 103.088 33.2976 102.656C31.6259 101.722 29.9739 100.689 28.3907 99.5685C20.8977 94.2792 14.8403 87.1022 10.8873 78.7947C3.73839 63.8215 3.82689 46.705 11.1134 31.8203C15.3221 23.2178 21.7433 15.8836 29.6887 10.6238C31.1834 9.62099 32.7961 8.66735 34.4579 7.79235C35.5298 7.23196 36.6409 6.69124 37.7816 6.18983C41.3118 4.63647 45.019 3.44687 48.8049 2.68002C52.6202 1.90334 56.5142 1.53958 60.3886 1.58874C62.0799 1.6084 63.7909 1.71655 65.4823 1.90334C66.1411 1.97216 66.7803 2.06065 67.3801 2.14913C72.8672 2.94547 78.2165 4.60698 83.2906 7.08449C110.008 20.1603 121.11 52.535 108.031 79.2568C99.4665 96.7567 82.0319 108.318 62.5421 109.42C61.5096 109.469 60.4673 109.498 59.4446 109.498V109.498ZM59.6216 1.93284C56.0226 1.93284 52.4137 2.2966 48.8737 3.02412C45.1173 3.79097 41.4298 4.96091 37.9193 6.51427C36.7983 7.00584 35.6871 7.54657 34.6251 8.09713C32.9632 8.97212 31.3702 9.91593 29.8756 10.9187C21.9892 16.149 15.6073 23.4243 11.4281 31.9776C4.19073 46.7542 4.10223 63.7723 11.2019 78.6472C15.1353 86.8958 21.1435 94.0334 28.5874 99.2833C30.1607 100.394 31.8029 101.427 33.4648 102.351C34.2318 102.773 35.0578 103.206 36.0018 103.678C38.5683 104.936 41.243 105.988 43.9472 106.814C46.2088 107.512 48.5688 108.063 50.9485 108.446C53.7314 108.908 56.5831 109.144 59.4446 109.154C60.4673 109.144 61.4998 109.125 62.5224 109.066C81.8844 107.974 99.201 96.4912 107.717 79.0995C120.707 52.5547 109.683 20.3962 83.1332 7.3991C78.0985 4.94125 72.7787 3.28957 67.331 2.49323C66.7311 2.40475 66.1018 2.32609 65.443 2.25727C63.7614 2.07048 62.0603 1.96233 60.3886 1.93284C60.1329 1.93284 59.8773 1.93284 59.6216 1.93284V1.93284Z" fill="#371A45"/>
<g opacity="0.3">
<path opacity="0.3" d="M7.00308 44.139C7.70125 49.9789 9.35326 55.6614 11.8804 60.9606C15.745 69.0715 21.6548 76.2484 29.3249 81.6556C30.8884 82.7568 32.5207 83.7891 34.2219 84.7329C35.0479 85.1949 35.8936 85.6374 36.7589 86.0699C39.3746 87.348 42.0395 88.3902 44.7338 89.216C47.0545 89.9239 49.4047 90.4744 51.7549 90.8578C54.5869 91.3199 57.4386 91.5559 60.2706 91.5559C61.3064 91.5559 62.3389 91.5296 63.3681 91.4772C75.1092 90.8185 85.6113 83.0222 94.599 75.3144C99.9975 70.6838 105.386 68.1965 108.71 61.4128C110.657 57.4213 112.073 53.3117 112.978 49.1629C114.177 59.1123 112.604 69.504 107.874 79.1781C99.0142 97.2777 81.3239 108.181 62.5323 109.243C61.503 109.295 60.4738 109.321 59.4446 109.321C56.6027 109.321 53.7609 109.085 50.919 108.623C48.5688 108.24 46.2187 107.689 43.898 106.981C41.2036 106.155 38.5388 105.113 35.9231 103.835C35.0578 103.403 34.2121 102.96 33.3861 102.498C31.6849 101.554 30.0526 100.522 28.4891 99.421C20.819 94.0137 14.9091 86.8368 11.0446 78.7161C5.99024 68.1276 4.42673 55.9662 7.00308 44.139V44.139Z" fill="#371A45"/>
</g>
<path fill-rule="evenodd" clip-rule="evenodd" d="M59.4447 110.511C56.5143 110.511 53.5741 110.265 50.7225 109.793C48.2838 109.4 45.8746 108.83 43.5441 108.112C40.7711 107.266 38.0275 106.185 35.402 104.907C34.4285 104.425 33.5828 103.973 32.806 103.54C31.1048 102.597 29.4135 101.535 27.8008 100.394C20.1701 95.0067 14.0046 87.6921 9.97287 79.2371C2.69615 63.9788 2.77482 46.5379 10.199 31.3779C14.4864 22.6083 21.0354 15.1462 29.1283 9.77829C30.6525 8.75583 32.2848 7.79235 33.986 6.89769C35.0775 6.31764 36.2182 5.77691 37.3687 5.26568C40.9677 3.67299 44.7437 2.47356 48.5984 1.68705C52.4826 0.890709 56.4553 0.517116 60.4083 0.576104C62.1292 0.595767 63.8697 0.703913 65.5905 0.900541C66.2592 0.96936 66.9181 1.05784 67.5376 1.14633C73.1131 1.96233 78.5706 3.65333 83.7332 6.17017C110.962 19.5015 122.27 52.4859 108.946 79.6992C100.214 97.5334 82.4548 109.311 62.6012 110.432C61.549 110.481 60.487 110.511 59.4447 110.511V110.511ZM59.6217 2.94547C56.0915 2.94547 52.5515 3.30923 49.0704 4.01709C45.3928 4.76428 41.7741 5.92439 38.3324 7.43842C37.2212 7.92999 36.1395 8.45105 35.0972 9.00161C33.4747 9.85694 31.9013 10.7811 30.446 11.7544C22.6973 16.8864 16.4432 24.0338 12.3329 32.42C5.23317 46.9213 5.1545 63.615 12.1165 78.2147C15.9712 86.3059 21.8713 93.3059 29.1775 98.4575C30.7213 99.539 32.334 100.552 33.9663 101.466C34.7137 101.879 35.5299 102.311 36.4542 102.773C38.9617 104.002 41.5872 105.035 44.2422 105.841C46.4646 106.529 48.7754 107.07 51.106 107.453C53.8396 107.896 56.6422 108.132 59.4447 108.132C60.4477 108.132 61.4605 108.112 62.4635 108.053C81.4616 106.981 98.4538 95.7145 106.802 78.6571C119.556 52.6137 108.739 21.0549 82.6908 8.31341C77.7446 5.89489 72.5329 4.27271 67.1836 3.49603C66.5936 3.41082 65.9773 3.33217 65.3349 3.26008C63.6829 3.08311 62.021 2.97497 60.369 2.9553C60.1199 2.94875 59.8708 2.94547 59.6217 2.94547V2.94547Z" fill="#371A45"/>
<path fill-rule="evenodd" clip-rule="evenodd" d="M59.4447 111.081C56.475 111.071 53.5152 110.825 50.634 110.354C48.1658 109.95 45.7271 109.38 43.3769 108.653C40.5843 107.797 37.8112 106.706 35.1562 105.408C34.1729 104.927 33.3174 104.474 32.5307 104.032C30.8099 103.078 29.1087 102.007 27.4763 100.856C19.767 95.4098 13.5326 88.0166 9.46156 79.4731C2.10618 64.0673 2.19468 46.4396 9.68773 31.1321C14.0243 22.274 20.6421 14.7235 28.8137 9.30641C30.3575 8.28394 32.0095 7.3008 33.7205 6.39631C34.8219 5.81626 35.9724 5.2657 37.1426 4.74464C40.7809 3.14212 44.5963 1.93286 48.4903 1.13652C52.4138 0.330341 56.4259 -0.0530837 60.4182 0.00590468C62.1587 0.0353989 63.9189 0.143544 65.6496 0.340172C66.3281 0.408992 66.9968 0.497475 67.6261 0.595789C73.2508 1.41179 78.7673 3.12246 83.979 5.66879C111.483 19.128 122.909 52.4466 109.448 79.945C100.627 97.966 82.6909 109.862 62.6307 110.993C61.5687 111.052 60.4969 111.081 59.4447 111.081V111.081ZM59.6217 3.50588C56.1309 3.50588 52.6203 3.85981 49.1885 4.56767C45.5403 5.31486 41.9609 6.4553 38.5586 7.94967C37.4671 8.44124 36.3854 8.95248 35.3529 9.4932C33.75 10.3387 32.1964 11.2629 30.7509 12.2263C23.0906 17.2993 16.9054 24.3779 12.8442 32.6756C5.81337 47.0196 5.7347 63.5266 12.6279 77.9689C16.4433 85.9716 22.2745 92.893 29.502 97.9954C31.0262 99.0671 32.6192 100.07 34.2319 100.974C34.9792 101.387 35.7856 101.81 36.7001 102.262C39.1879 103.481 41.7839 104.504 44.4095 105.3C46.6121 105.979 48.8935 106.519 51.2043 106.893C53.8987 107.335 56.6717 107.571 59.4447 107.571C60.4379 107.571 61.4409 107.542 62.4341 107.493C81.2257 106.431 98.0408 95.2918 106.301 78.4015C118.907 52.6432 108.209 21.4285 82.445 8.81484C77.5578 6.42581 72.3953 4.82329 67.1049 4.05644C66.5215 3.96468 65.9118 3.88603 65.2759 3.82049C63.6436 3.64352 61.9916 3.53538 60.3592 3.51571C60.1167 3.50916 59.8708 3.50588 59.6217 3.50588V3.50588Z" fill="#371A45"/>
<path d="M14.9877 85.6276C12.0049 80.2531 9.48755 74.6262 7.43565 68.7471C5.3903 62.8679 5.06252 55.6254 6.45231 47.0197C15.4695 19.2656 33.5335 12.1674 51.6564 13.0227C76.5546 14.1926 99.5451 36.8638 96.6737 62.6024C92.465 100.434 48.8539 113.903 18.5179 90.2975L14.9877 85.6276Z" fill="#371A45"/>
<g opacity="0.3">
<path opacity="0.3" d="M96.674 62.6024C92.4653 100.434 48.8542 113.903 18.5182 90.2975L14.988 85.6276C14.28 84.3495 13.4441 82.7175 12.4805 80.7315C42.7968 103.963 86.0834 90.4548 90.2823 52.771C91.1575 44.9354 89.6333 37.3751 86.3784 30.6307C93.7732 39.4003 98.0015 50.677 96.674 62.6024V62.6024Z" fill="#111A28"/>
</g>
<path fill-rule="evenodd" clip-rule="evenodd" d="M51.7747 108.898C49.1 108.898 46.4056 108.712 43.7113 108.338L43.4949 108.289C40.7121 107.443 37.9587 106.352 35.3234 105.064C34.3499 104.582 33.5042 104.13 32.7175 103.698C31.0065 102.744 29.3152 101.682 27.7025 100.542C20.0423 95.1345 13.8571 87.8003 9.80573 79.3158C2.50935 64.0083 2.58802 46.5084 10.0319 31.2992C14.3389 22.5001 20.9076 15.0086 29.03 9.63084L29.148 9.55219L29.2759 9.4932C35.8741 6.86822 43.4359 5.73761 51.755 6.13087C66.5739 6.82889 81.4519 14.3008 91.5508 26.1378C100.824 37.0015 105.131 50.2345 103.665 63.3791C102.072 77.674 95.5726 89.6191 84.8837 97.9365C75.719 105.064 63.9681 108.898 51.7747 108.898V108.898ZM44.1931 105.634C58.422 107.581 72.6313 103.993 83.2022 95.7736C93.3011 87.9281 99.4273 76.622 100.942 63.0842C102.318 50.6868 98.2473 38.2009 89.4661 27.9074C79.849 16.6505 65.7086 9.5227 51.6272 8.86399C43.7604 8.50023 36.6214 9.54236 30.4165 11.9904C22.7661 17.0929 16.5613 24.1911 12.5001 32.4987C5.42003 46.9508 5.34137 63.5856 12.2739 78.136C16.1188 86.1978 21.9991 93.1682 29.2759 98.3101C30.8197 99.3915 32.4225 100.404 34.0549 101.309C34.7924 101.722 35.6086 102.154 36.5329 102.606C39.0011 103.816 41.5774 104.838 44.1931 105.634Z" fill="#371A45"/>
<path fill-rule="evenodd" clip-rule="evenodd" d="M51.8335 103.776C39.8466 103.776 27.6728 99.6373 17.4461 91.6837L17.2593 91.5362L13.4537 86.4829C13.2669 86.1486 8.87137 78.1852 5.78369 69.3271C2.59767 60.1937 4.63318 47.2851 4.72168 46.7444L4.79051 46.4789C12.7261 22.0282 28.5185 10.1814 51.7351 11.2727C65.0594 11.8921 78.4427 18.6167 87.5189 29.2543C95.8674 39.0365 99.7418 50.9522 98.4143 62.799C96.5164 79.8958 86.6044 93.4238 71.2249 99.9027C65.0594 102.508 58.4809 103.776 51.8335 103.776V103.776ZM19.7766 89.0587C34.6447 100.522 53.81 103.452 69.8581 96.678C84.0379 90.7005 93.1731 78.2048 94.9333 62.4058C96.1428 51.5322 92.5634 40.5604 84.8442 31.5254C76.3875 21.6153 63.9482 15.3527 51.568 14.7727C30.1705 13.76 15.5679 24.7515 8.16337 47.4326C7.9667 48.7696 6.36386 60.3314 9.08771 68.1768C11.8902 76.2091 15.9318 83.7104 16.4628 84.6739L19.7766 89.0587Z" fill="#371A45"/>
<path d="M106.448 43.0477C108.208 42.9494 109.9 43.3034 111.453 44.0407C116.744 46.4986 120.54 53.2822 120.618 61.4619C120.717 72.07 114.541 81.0264 106.822 81.459C99.1519 81.8916 92.8487 73.7709 92.652 63.2808C92.652 63.2021 92.652 63.1136 92.652 63.0448C92.5439 52.4367 98.7192 43.4803 106.448 43.0477V43.0477Z" fill="white"/>
<g opacity="0.3">
<path opacity="0.3" d="M96.2115 65.8272C99.1485 65.8272 101.269 64.3262 102.574 61.3244L106.025 54.5997C109.241 48.3568 118.592 49.4972 120.067 56.3595C120.412 57.9817 120.598 59.6924 120.618 61.462C120.716 72.0701 114.541 81.0265 106.822 81.4591C99.1517 81.8917 92.8485 73.7709 92.6519 63.2808C93.5467 64.726 94.7169 65.8272 96.2115 65.8272V65.8272Z" fill="#371A45"/>
</g>
<path fill-rule="evenodd" clip-rule="evenodd" d="M106.222 83.2287C103.007 83.2287 99.9484 81.9604 97.3524 79.5223C93.3109 75.747 90.9607 69.74 90.8919 63.0645C90.7837 51.5519 97.7163 41.7894 106.35 41.2978C109.821 41.1012 113.125 42.3792 115.908 44.9846C119.95 48.7696 122.3 54.7668 122.369 61.4521C122.477 72.9647 115.554 82.7175 106.92 83.209C106.684 83.2221 106.452 83.2287 106.222 83.2287V83.2287ZM107.028 44.7879C106.865 44.7879 106.704 44.7912 106.547 44.7978C99.7518 45.1812 94.3041 53.3609 94.4024 63.0252C94.4516 68.6684 96.4576 73.879 99.7518 76.9661C101.817 78.9029 104.216 79.8467 106.724 79.7091C113.509 79.3256 118.956 71.1557 118.868 61.4816C118.809 55.8384 116.813 50.6278 113.519 47.5407C111.581 45.7317 109.349 44.7879 107.028 44.7879V44.7879Z" fill="#371A45"/>
<path d="M121.661 68.9043C119.183 76.6613 112.476 80.5742 106.675 77.6444C100.883 74.7146 98.1982 66.0433 100.676 58.2864C103.154 50.5196 109.87 46.6067 115.662 49.5463C121.454 52.476 124.139 61.1375 121.661 68.9043Z" fill="white"/>
<path fill-rule="evenodd" clip-rule="evenodd" d="M110.677 78.7947C109.28 78.7947 107.894 78.4604 106.596 77.8017C100.735 74.8424 98.0014 66.0532 100.509 58.2274C101.895 53.8721 104.659 50.5589 108.081 49.1235C110.608 48.0715 113.322 48.16 115.741 49.3791C121.602 52.3482 124.335 61.1276 121.828 68.9534C120.441 73.3087 117.678 76.6317 114.256 78.0573C113.096 78.5489 111.886 78.7947 110.677 78.7947ZM111.66 48.7401C110.519 48.7401 109.359 48.9859 108.218 49.4578C104.895 50.8538 102.21 54.0884 100.853 58.3355C98.3947 66.004 101.05 74.5966 106.763 77.4871C109.113 78.6767 111.66 78.7553 114.118 77.723C117.442 76.3368 120.127 73.1023 121.484 68.8453C123.942 61.1768 121.287 52.594 115.574 49.7036C114.315 49.0645 112.997 48.7401 111.66 48.7401V48.7401Z" fill="#371A45"/>
<g opacity="0.3">
<path opacity="0.3" d="M100.253 69.7794C99.5158 66.9873 99.5551 63.9788 100.204 61.1474C102.407 67.3805 108.13 69.8777 113.46 66.712C116.911 64.667 119.399 60.7148 120.402 56.3398C120.549 56.7331 120.667 57.146 120.785 57.5688C122.644 64.6867 119.989 73.9872 114.325 77.3594C108.651 80.7316 102.112 76.9071 100.253 69.7794V69.7794Z" fill="#371A45"/>
</g>
<path fill-rule="evenodd" clip-rule="evenodd" d="M110.824 80.8397C108.425 80.8397 106.143 79.886 104.187 78.0574C100.912 75.0096 98.9356 69.7892 98.8962 64.1066C98.8372 54.403 104.157 46.4494 111.001 46.007C113.607 45.8399 116.115 46.7935 118.229 48.7696C121.503 51.8272 123.48 57.0477 123.519 62.7302C123.568 72.4338 118.258 80.3776 111.414 80.82C111.217 80.8331 111.021 80.8397 110.824 80.8397V80.8397ZM111.581 49.4972C111.463 49.4972 111.345 49.5004 111.227 49.507C106.399 49.8216 102.358 56.4971 102.397 64.087C102.426 68.8257 103.99 73.0925 106.576 75.5012C107.55 76.4057 109.133 77.4577 111.188 77.3299C116.016 77.0152 120.058 70.3397 120.009 62.7499C119.989 58.0112 118.425 53.7443 115.839 51.3356C114.925 50.4803 113.46 49.4972 111.581 49.4972V49.4972Z" fill="#371A45"/>
<g opacity="0.7">
<path opacity="0.7" d="M21.1434 55.5828C19.4455 64.2737 19.0128 70.8149 19.8454 75.2062C13.1784 66.0434 10.6315 56.5266 13.8569 44.0604C15.4695 37.8469 18.4392 32.3512 22.3627 27.7992C23.2871 26.7276 24.5163 25.9706 25.8831 25.5675C27.0107 25.2398 28.1579 24.9645 29.3248 24.7417C30.0983 24.5975 31.2685 24.4369 32.8353 24.2599L34.1628 24.1616C35.3953 23.8404 35.9132 23.8208 35.7165 24.1026C24.8506 39.4396 22.5594 48.2879 21.1434 55.5828V55.5828Z" fill="white"/>
</g>
<g opacity="0.7">
<path opacity="0.7" d="M82.3664 52.3483C82.0124 56.9691 78.5117 60.4592 74.5489 60.1544C70.5958 59.8497 67.6753 55.8581 68.0293 51.2472C68.3833 46.6363 71.884 43.1461 75.837 43.4509C79.7999 43.7557 82.7204 47.7374 82.3664 52.3483V52.3483Z" fill="white"/>
</g>
<g opacity="0.7">
<path opacity="0.7" d="M78.4034 69.9268C78.0985 71.8144 76.535 73.122 74.9125 72.8663C73.2998 72.6009 72.2378 70.8607 72.5427 68.9731C72.8475 67.0855 74.411 65.7681 76.0237 66.0335C77.6462 66.299 78.7082 68.0391 78.4034 69.9268Z" fill="white"/>
</g>
<path d="M114.276 88.2132C115.626 102.672 112.391 113.814 104.57 121.64C97.2443 128.964 83.4776 125.307 80.4686 123.154C77.1449 120.785 73.4082 117 74.362 105.192C75.4339 92.018 82.7499 95.0854 86.88 86.4731C91.0985 77.6838 102.712 76.1796 105.485 80.0532C107.481 82.8256 108.69 96.0292 92.2392 100.443" fill="white"/>
<g opacity="0.3">
<path opacity="0.3" d="M103.774 93.3746C102.069 102.564 100.047 107.204 97.7065 107.296C95.3662 107.394 93.9502 105.117 93.4585 100.463C98.2047 99.3292 101.643 96.9664 103.774 93.3746V93.3746Z" fill="#371A45"/>
</g>
<g opacity="0.3">
<path opacity="0.3" d="M104.57 121.64C97.2442 128.955 83.4775 125.307 80.4684 123.154C77.1448 120.785 73.4081 117 74.3717 105.192C74.398 104.838 74.4307 104.497 74.4701 104.17C75.2862 110.245 77.9904 112.792 80.4684 114.561C83.4775 116.714 97.2442 120.362 104.57 113.047C111.532 106.077 113.656 95.6064 114.217 88.2525L114.276 88.223C115.626 102.682 112.391 113.821 104.57 121.64V121.64Z" fill="#371A45"/>
</g>
<path d="M92.0916 99.8733C94.9039 98.1626 97.5786 96.7567 99.7911 94.8593C100.883 93.9056 101.856 92.8537 102.643 91.6936C103.42 90.5236 104.049 89.2554 104.423 87.8888C104.806 86.5321 104.934 85.0869 104.796 83.7006C104.737 83.0124 104.59 82.3341 104.393 81.754C104.285 81.4886 104.157 81.2035 104.069 81.0855C103.941 80.938 103.823 80.7709 103.606 80.6431C103.223 80.3481 102.662 80.122 102.043 79.9844C101.423 79.8467 100.745 79.7877 100.057 79.7976C98.6701 79.8172 97.2443 80.122 95.8971 80.6136C93.1929 81.6066 90.8034 83.4352 89.2596 85.8144C89.0825 86.1192 88.8859 86.4141 88.7187 86.7287L88.4729 87.2006L88.1582 87.7905C87.9419 88.1838 87.7452 88.577 87.5092 88.9703L86.7225 90.0812C85.631 91.5461 84.2445 92.775 82.8875 93.768C81.5305 94.7806 80.2718 95.6261 79.3082 96.6191C78.3445 97.6022 77.666 98.7623 77.1546 100.08C76.9481 100.768 76.6925 101.436 76.5745 102.174C76.5056 102.547 76.4171 102.901 76.3581 103.265L76.2205 104.406C76.1811 104.779 76.1221 105.153 76.1025 105.536L76.0336 106.706C75.9648 107.483 75.9943 108.25 75.9746 109.026C76.0041 112.084 76.4171 115.141 77.725 117.619C78.3641 118.868 79.259 119.92 80.3407 120.844C80.6258 121.07 80.9012 121.306 81.206 121.522C81.3633 121.64 81.5207 121.758 81.6092 121.807C81.7173 121.886 81.8747 121.964 82.0025 122.043C82.5925 122.348 83.2808 122.623 83.9889 122.859C86.8209 123.813 89.9282 124.285 92.9274 124.226C95.9266 124.177 98.8865 123.508 101.286 122.014C101.886 121.63 102.446 121.217 102.957 120.736L103.351 120.382L103.734 119.969C103.98 119.684 104.255 119.428 104.491 119.133C105.494 118.002 106.35 116.744 107.137 115.446C107.923 114.148 108.602 112.762 109.192 111.337C109.772 109.921 110.283 108.456 110.706 106.952C111.119 105.458 111.473 103.934 111.749 102.4C112.024 100.856 112.152 99.2932 112.26 97.73C112.535 94.5938 112.653 91.4969 113.696 88.2722V88.2526C113.804 87.9281 114.158 87.7413 114.482 87.8495C114.649 87.8986 114.777 88.0166 114.856 88.1641C115.269 88.9703 115.505 89.7863 115.711 90.6121C115.908 91.4281 116.036 92.2638 116.095 93.0896C116.213 94.7511 116.183 96.4225 115.987 98.084C115.79 99.7357 115.495 101.378 115.2 103.019C114.895 104.661 114.531 106.293 114.079 107.906C113.627 109.528 113.066 111.12 112.427 112.684C111.778 114.247 111.031 115.78 110.146 117.245C109.261 118.7 108.287 120.126 107.147 121.424C106.881 121.768 106.556 122.063 106.271 122.377L105.829 122.849L105.327 123.321C104.659 123.95 103.911 124.491 103.144 124.983C101.6 125.936 99.9091 126.634 98.1883 127.057C96.4773 127.5 94.7269 127.696 92.9962 127.735C89.5349 127.785 86.1522 127.273 82.858 126.182C82.032 125.897 81.206 125.573 80.3603 125.14C80.144 125.012 79.9375 124.914 79.7113 124.757C79.4655 124.599 79.2983 124.471 79.1213 124.344C78.7772 124.088 78.4232 123.803 78.079 123.528C76.7121 122.358 75.4633 120.903 74.6275 119.261C73.772 117.639 73.2508 115.898 72.9263 114.188C72.5821 112.457 72.5034 110.747 72.4641 109.056C72.4838 108.21 72.4641 107.355 72.5329 106.529L72.6018 105.271C72.6313 104.858 72.7001 104.425 72.7394 104.002L72.8968 102.724C72.9656 102.302 73.0639 101.869 73.1524 101.436C73.2901 100.581 73.595 99.7258 73.8703 98.8705C74.4996 97.1697 75.4928 95.4885 76.8006 94.1711C78.1085 92.8438 79.5638 91.8902 80.793 90.966C82.032 90.0517 83.0743 89.0981 83.9299 87.9773L84.5395 87.1023C84.7264 86.7975 84.8837 86.4731 85.0607 86.1585L85.3262 85.6768L85.631 85.077C85.8375 84.6739 86.0834 84.2905 86.3194 83.9071C88.3057 80.8495 91.3246 78.5588 94.6778 77.3201C96.3691 76.7204 98.1489 76.3271 99.9976 76.2976C100.922 76.2779 101.866 76.3566 102.82 76.563C103.774 76.7793 104.757 77.1333 105.681 77.8116C106.143 78.1262 106.566 78.5686 106.93 79.0602C107.314 79.6108 107.501 80.0827 107.687 80.5644C108.022 81.5082 108.189 82.4226 108.287 83.3467C108.474 85.1754 108.346 87.004 107.933 88.7736C107.52 90.5531 106.783 92.254 105.789 93.7877C104.777 95.3115 103.498 96.6388 102.063 97.7006C99.2109 99.8635 95.7889 101.004 92.3964 101.004C92.0621 101.004 91.7867 100.729 91.7867 100.404C91.7867 100.178 91.9047 99.9913 92.0817 99.8831L92.0916 99.8733Z" fill="#371A45"/>
<path d="M98.6014 98.7426C98.68 99.4308 98.6407 100.168 98.5915 100.876C98.5522 101.584 98.444 102.292 98.3654 103C98.2965 103.707 98.2277 104.415 98.208 105.113C98.1884 105.821 98.1982 106.5 98.4539 107.158L98.4735 107.207C98.5129 107.306 98.4637 107.424 98.3654 107.463C98.3064 107.483 98.2375 107.473 98.1785 107.443C98.0113 107.325 97.8147 107.207 97.6573 107.05C97.5197 106.903 97.3623 106.736 97.2345 106.559C97.1165 106.391 96.9985 106.205 96.8903 106.018C96.8018 105.841 96.7035 105.654 96.615 105.457C96.2905 104.7 96.0643 103.914 95.8972 103.137C95.7497 102.361 95.6317 101.574 95.6218 100.797C95.6218 100.011 95.6612 99.2539 95.8775 98.4575C96.084 97.7202 96.851 97.2876 97.5885 97.494C98.149 97.6513 98.5325 98.1232 98.5915 98.664L98.6014 98.7426Z" fill="#371A45"/>
<path d="M34.1136 108.161C34.6151 108.299 35.1757 108.427 35.7067 108.545C36.2475 108.663 36.7883 108.771 37.3292 108.869C38.4108 109.056 39.5023 109.193 40.5349 109.184H40.584C41.0659 109.174 41.469 109.567 41.4789 110.049C41.4789 110.462 41.2035 110.806 40.8299 110.904C39.6105 111.248 38.4207 111.386 37.2308 111.494C36.631 111.543 36.041 111.582 35.451 111.602C34.8512 111.622 34.2808 111.641 33.6515 111.632H33.622C32.6485 111.622 31.8618 110.825 31.8815 109.852C31.8913 108.869 32.6878 108.092 33.6613 108.102C33.8186 108.102 33.976 108.122 34.1136 108.161Z" fill="#371A45"/>
</g>
<defs>
<filter id="filter0_d_236_3" x="0" y="0" width="182.823" height="274.24" filterUnits="userSpaceOnUse" color-interpolation-filters="sRGB">
<feFlood flood-opacity="0" result="BackgroundImageFix"/>
<feColorMatrix in="SourceAlpha" type="matrix" values="0 0 0 0 0 0 0 0 0 0 0 0 0 0 0 0 0 0 127 0" result="hardAlpha"/>
<feOffset dy="4"/>
<feGaussianBlur stdDeviation="2"/>
<feComposite in2="hardAlpha" operator="out"/>
<feColorMatrix type="matrix" values="0 0 0 0 0 0 0 0 0 0 0 0 0 0 0 0 0 0 0.25 0"/>
<feBlend mode="normal" in2="BackgroundImageFix" result="effect1_dropShadow_236_3"/>
<feBlend mode="normal" in="SourceGraphic" in2="effect1_dropShadow_236_3" result="shape"/>
</filter>
</defs>
</svg>
