<svg width="80" height="85" viewBox="0 0 80 85" fill="none" xmlns="http://www.w3.org/2000/svg">
<path d="M74.189 38.3011H74.1815C72.6416 38.3006 71.1644 38.9109 70.0739 39.998C68.9833 41.0852 68.3684 42.5604 68.364 44.1003L68.2994 73.5111C68.2994 73.6697 68.3366 73.8262 68.4079 73.9679L73.1872 83.5586C73.2723 83.7288 73.4031 83.8719 73.5649 83.972C73.7266 84.0722 73.9131 84.1253 74.1034 84.1256H74.1047C74.295 84.1256 74.4816 84.0726 74.6435 83.9727C74.8055 83.8727 74.9364 83.7297 75.0217 83.5596L79.8265 73.9809C79.8981 73.8391 79.9357 73.6825 79.9361 73.5235L80 44.1167C80.0006 42.5749 79.3886 41.0961 78.2989 40.0055C77.2091 38.9148 75.7308 38.3018 74.189 38.3011ZM70.4032 49.854L73.1525 49.8576L73.0938 72.4874L70.3536 72.4838L70.4032 49.854ZM74.1076 80.8054L70.9839 74.5365L77.2476 74.5447L74.1076 80.8054ZM77.8852 72.4937L75.1457 72.4901L75.2043 49.8603L77.9345 49.8639L77.8852 72.4937ZM77.9389 47.8145L70.4076 47.8033L70.4158 44.1044C70.4186 43.1078 70.8166 42.153 71.5226 41.4497C72.2287 40.7463 73.1849 40.3519 74.1815 40.3529H74.1863C74.6801 40.3514 75.1693 40.4474 75.6259 40.6355C76.0825 40.8235 76.4974 41.1 76.8469 41.4489C77.1963 41.7978 77.4734 42.2123 77.6622 42.6686C77.851 43.1249 77.9478 43.614 77.947 44.1078L77.9389 47.8145Z" fill="black"/>
<path d="M57.9387 15.9018H57.7936V13.0104C57.7889 12.871 57.7565 12.7339 57.6982 12.6071C57.64 12.4803 57.5572 12.3664 57.4545 12.2719L45.0125 0.287429C44.8163 0.102769 44.5571 -3.92339e-05 44.2877 1.12316e-08H6.44621C4.74084 0.00120534 3.10534 0.67765 1.89735 1.88141C0.689364 3.08517 0.00718682 4.71829 0 6.42364V71.5013C0.00545859 73.2113 0.68565 74.8501 1.89273 76.0614C3.0998 77.2727 4.73619 77.9586 6.44621 77.97H8.69485C8.75932 79.6274 9.46426 81.1951 10.6613 82.3432C11.8583 83.4913 13.4541 84.1303 15.1127 84.1256H57.9387C58.7783 84.1232 59.6091 83.9549 60.3834 83.6303C61.1576 83.3058 61.8601 82.8314 62.4505 82.2345C63.0408 81.6375 63.5073 80.9298 63.8232 80.1519C64.139 79.3741 64.2981 78.5415 64.2911 77.7019V22.2866C64.2974 21.4491 64.1376 20.6187 63.821 19.8433C63.5044 19.068 63.0372 18.3631 62.4465 17.7694C61.8558 17.1756 61.1533 16.7049 60.3796 16.3843C59.6058 16.0638 58.7762 15.8998 57.9387 15.9018ZM45.3115 3.44026L54.2037 11.9691H45.3115V3.44026ZM6.44621 75.9182C5.28015 75.9074 4.16525 75.4379 3.34282 74.6112C2.52039 73.7845 2.0566 72.6672 2.05184 71.5011V6.42364C2.05835 5.26226 2.52413 4.15064 3.34747 3.33153C4.17081 2.51242 5.28481 2.05237 6.44621 2.05184H43.2597V13.0383C43.2608 13.1708 43.2885 13.3019 43.3411 13.4235C43.3938 13.5452 43.4703 13.6551 43.5661 13.7467C43.6619 13.8384 43.7752 13.9098 43.8991 13.9569C44.023 14.004 44.1552 14.0258 44.2877 14.0209H55.7417V71.5011C55.7307 72.6701 55.261 73.788 54.4339 74.6142C53.6067 75.4403 52.4882 75.9086 51.3192 75.9182H6.44621ZM62.2392 77.7019C62.2466 78.2721 62.1408 78.838 61.9282 79.3671C61.7156 79.8961 61.4002 80.3778 61.0003 80.7843C60.6005 81.1908 60.124 81.514 59.5986 81.7354C59.0731 81.9567 58.5089 82.0717 57.9387 82.0737H15.1127C14.0012 82.0677 12.9331 81.6412 12.1232 80.8799C11.3133 80.1187 10.8215 79.0791 10.7467 77.97H51.3192C53.0322 77.9598 54.6722 77.2752 55.884 76.0644C57.0959 74.8536 57.7819 73.2141 57.7936 71.5011V17.9536H57.9387C58.5069 17.9513 59.0698 18.0621 59.5947 18.2794C60.1197 18.4967 60.5961 18.8163 60.9963 19.2196C61.3965 19.6228 61.7125 20.1017 61.9259 20.6282C62.1393 21.1548 62.2458 21.7185 62.2392 22.2866V77.7019Z" fill="black"/>
<path d="M12.0819 51.638C11.8099 51.638 11.5489 51.7461 11.3565 51.9385C11.1641 52.1309 11.056 52.3918 11.056 52.6639C11.056 52.936 11.1641 53.197 11.3565 53.3894C11.5489 53.5818 11.8099 53.6898 12.0819 53.6898H33.448C33.72 53.6898 33.981 53.5818 34.1734 53.3894C34.3658 53.197 34.4739 52.936 34.4739 52.6639C34.4739 52.3918 34.3658 52.1309 34.1734 51.9385C33.981 51.7461 33.72 51.638 33.448 51.638H12.0819Z" fill="black"/>
<path d="M45.6934 58.1356H12.0819C11.8099 58.1356 11.5489 58.2436 11.3565 58.436C11.1641 58.6284 11.056 58.8894 11.056 59.1615C11.056 59.4336 11.1641 59.6945 11.3565 59.8869C11.5489 60.0793 11.8099 60.1874 12.0819 60.1874H45.6934C45.9654 60.1874 46.2264 60.0793 46.4188 59.8869C46.6112 59.6945 46.7193 59.4336 46.7193 59.1615C46.7193 58.8894 46.6112 58.6284 46.4188 58.436C46.2264 58.2436 45.9654 58.1356 45.6934 58.1356Z" fill="#F3BD03"/>
<path d="M40.8698 64.462H12.0819C11.8099 64.462 11.5489 64.5701 11.3565 64.7625C11.1641 64.9549 11.056 65.2159 11.056 65.488C11.056 65.76 11.1641 66.021 11.3565 66.2134C11.5489 66.4058 11.8099 66.5139 12.0819 66.5139H40.8698C41.1419 66.5139 41.4029 66.4058 41.5953 66.2134C41.7877 66.021 41.8957 65.76 41.8957 65.488C41.8957 65.2159 41.7877 64.9549 41.5953 64.7625C41.4029 64.5701 41.1419 64.462 40.8698 64.462Z" fill="black"/>
<path d="M26.3481 45.2773C28.7016 45.2776 31.028 44.7752 33.1716 43.8037C35.3152 42.8322 37.2266 41.4141 38.7779 39.6441C40.3291 37.8742 41.4844 35.7934 42.1664 33.5408C42.8485 31.2883 43.0415 28.9161 42.7326 26.583C42.4237 24.2498 41.62 22.0096 40.3753 20.0122C39.1306 18.0148 37.4736 16.3062 35.5152 15.001C33.5569 13.6957 31.3423 12.8238 29.0197 12.4436C26.6971 12.0634 24.3201 12.1837 22.0477 12.7965L21.496 11.1408C21.4278 10.9366 21.2971 10.759 21.1224 10.6332C20.9477 10.5074 20.7378 10.4397 20.5225 10.4398C17.1365 10.4403 13.8894 11.7857 11.4953 14.1801C9.10117 16.5745 7.75619 19.8219 7.75614 23.2079C7.75608 23.4232 7.82375 23.633 7.94957 23.8077C8.07538 23.9824 8.25297 24.1131 8.45719 24.1813L10.3026 24.7968C9.7027 27.2307 9.66432 29.7692 10.1904 32.2201C10.7165 34.6711 11.7933 36.9702 13.3392 38.9435C14.8852 40.9167 16.8598 42.5124 19.1136 43.6098C21.3674 44.7071 23.8413 45.2774 26.3481 45.2773ZM26.3481 14.2784C29.3517 14.2792 32.2807 15.2147 34.7288 16.9552C37.1768 18.6957 39.0225 21.1548 40.0099 23.9916C40.9973 26.8283 41.0774 29.902 40.2392 32.7864C39.4009 35.6707 37.6858 38.2227 35.3318 40.0883C32.9778 41.954 30.1015 43.0408 27.1019 43.1981C24.1024 43.3554 21.1282 42.5753 18.592 40.9661C16.0558 39.3568 14.0832 36.9982 12.9479 34.2173C11.8126 31.4365 11.5709 28.3712 12.2562 25.4468L26.0694 30.0503C26.2501 30.1105 26.4441 30.1192 26.6295 30.0754C26.8149 30.0316 26.9845 29.9371 27.1192 29.8023C27.2539 29.6676 27.3485 29.498 27.3922 29.3126C27.436 29.1272 27.4272 28.9332 27.367 28.7525L22.6977 14.7462C23.8896 14.4355 25.1163 14.2784 26.3481 14.2788V14.2784ZM9.83175 22.4766C10.009 19.8935 11.1152 17.4618 12.946 15.6309C14.7767 13.8 17.2083 12.6936 19.7914 12.5162L24.7716 27.4557L9.83175 22.4766Z" fill="#F3BD03"/>
<path d="M5.47158 5.22931C5.19949 5.22931 4.93855 5.3374 4.74615 5.52979C4.55375 5.72219 4.44566 5.98314 4.44566 6.25523V6.99047C4.44566 7.26257 4.55375 7.52351 4.74615 7.71591C4.93855 7.90831 5.19949 8.0164 5.47158 8.0164C5.74368 8.0164 6.00462 7.90831 6.19702 7.71591C6.38942 7.52351 6.49751 7.26257 6.49751 6.99047V6.25523C6.49751 5.98314 6.38942 5.72219 6.19702 5.52979C6.00462 5.3374 5.74368 5.22931 5.47158 5.22931Z" fill="black"/>
<path d="M5.47158 9.55438C5.19949 9.55438 4.93855 9.66247 4.74615 9.85487C4.55375 10.0473 4.44566 10.3082 4.44566 10.5803V22.8914C4.44566 23.1635 4.55375 23.4244 4.74615 23.6168C4.93855 23.8092 5.19949 23.9173 5.47158 23.9173C5.74368 23.9173 6.00462 23.8092 6.19702 23.6168C6.38942 23.4244 6.49751 23.1635 6.49751 22.8914V10.5803C6.49751 10.3082 6.38942 10.0473 6.19702 9.85487C6.00462 9.66247 5.74368 9.55438 5.47158 9.55438Z" fill="black"/>
</svg>
