<svg width="80" height="68" viewBox="0 0 80 68" fill="none" xmlns="http://www.w3.org/2000/svg">
<path d="M73.5484 0H6.45161C2.88999 0.00441029 0.00441029 2.88999 0 6.45161V42.5806C0.00441029 46.1423 2.88999 49.0278 6.45161 49.0323H33.2901L31.1794 60.6452H24.5161C23.8036 60.6452 23.2258 61.2229 23.2258 61.9355V65.8064C23.2258 66.519 23.8036 67.0968 24.5161 67.0968H55.4839C56.1964 67.0968 56.7742 66.519 56.7742 65.8064V61.9355C56.7742 61.2229 56.1964 60.6452 55.4839 60.6452H48.818L46.7099 49.0323H73.5484C77.11 49.0278 79.9956 46.1423 80 42.5806V6.45161C79.9956 2.88999 77.11 0.00441029 73.5484 0ZM6.45161 2.58065H73.5484C75.6861 2.58065 77.4193 4.31389 77.4193 6.45161V38.7097H2.58065V6.45161C2.58065 4.31389 4.31389 2.58065 6.45161 2.58065ZM54.1935 64.5161H25.8064V63.2258H54.1935V64.5161ZM46.1933 60.6452H33.8067L35.9186 49.0323H44.0864L46.1933 60.6452ZM73.5484 46.4516H6.45161C4.31389 46.4516 2.58065 44.7184 2.58065 42.5806V41.2903H77.4193V42.5806C77.4193 44.7184 75.6861 46.4516 73.5484 46.4516Z" fill="#231F20"/>
<path d="M15.4839 42.5807H7.74192C7.02935 42.5807 6.4516 43.1584 6.4516 43.871C6.4516 44.5836 7.02935 45.1613 7.74192 45.1613H15.4839C16.1964 45.1613 16.7742 44.5836 16.7742 43.871C16.7742 43.1584 16.1964 42.5807 15.4839 42.5807Z" fill="#231F20"/>
<path d="M20.6452 42.5807H19.3548C18.6423 42.5807 18.0645 43.1584 18.0645 43.871C18.0645 44.5836 18.6423 45.1613 19.3548 45.1613H20.6452C21.3577 45.1613 21.9355 44.5836 21.9355 43.871C21.9355 43.1584 21.3577 42.5807 20.6452 42.5807Z" fill="#231F20"/>
<path d="M9.03227 36.1291H29.6774C30.39 36.1291 30.9678 35.5513 30.9678 34.8387V6.45164C30.9678 5.73906 30.39 5.16132 29.6774 5.16132H9.03227C8.31969 5.16132 7.74194 5.73906 7.74194 6.45164V34.8387C7.74194 35.5513 8.31969 36.1291 9.03227 36.1291ZM10.3226 7.74196H28.3871V33.5484H10.3226V7.74196Z" fill="#F3BD03"/>
<path d="M41.9355 21.9355C46.5676 21.9355 50.3226 18.1805 50.3226 13.5484C50.3226 8.91636 46.5676 5.16132 41.9355 5.16132C37.3034 5.16132 33.5484 8.91636 33.5484 13.5484C33.5541 18.1779 37.306 21.9298 41.9355 21.9355ZM41.9355 7.74196C45.1424 7.74196 47.7419 10.3415 47.7419 13.5484C47.7419 16.7553 45.1424 19.3549 41.9355 19.3549C38.7286 19.3549 36.129 16.7553 36.129 13.5484C36.1328 10.3428 38.7299 7.74574 41.9355 7.74196Z" fill="#F3BD03"/>
<path d="M62.5806 21.9355C67.2127 21.9355 70.9677 18.1805 70.9677 13.5484C70.9677 8.91636 67.2127 5.16132 62.5806 5.16132C57.9486 5.16132 54.1935 8.91636 54.1935 13.5484C54.1992 18.1779 57.9511 21.9298 62.5806 21.9355ZM62.5806 7.74196C65.7875 7.74196 68.3871 10.3415 68.3871 13.5484C68.3871 16.7553 65.7875 19.3549 62.5806 19.3549C59.3737 19.3549 56.7742 16.7553 56.7742 13.5484C56.778 10.3428 59.375 7.74574 62.5806 7.74196Z" fill="#F3BD03"/>
<path d="M34.8387 27.0968H69.6774C70.39 27.0968 70.9678 26.519 70.9678 25.8064C70.9678 25.0939 70.39 24.5161 69.6774 24.5161H34.8387C34.1261 24.5161 33.5484 25.0939 33.5484 25.8064C33.5484 26.519 34.1261 27.0968 34.8387 27.0968Z" fill="#231F20"/>
<path d="M34.8387 32.2581H56.7742C57.4868 32.2581 58.0645 31.6803 58.0645 30.9678C58.0645 30.2552 57.4868 29.6774 56.7742 29.6774H34.8387C34.1261 29.6774 33.5484 30.2552 33.5484 30.9678C33.5484 31.6803 34.1261 32.2581 34.8387 32.2581Z" fill="#231F20"/>
<path d="M63.2258 29.6774H60.6452C59.9326 29.6774 59.3549 30.2552 59.3549 30.9678C59.3549 31.6803 59.9326 32.2581 60.6452 32.2581H63.2258C63.9384 32.2581 64.5161 31.6803 64.5161 30.9678C64.5161 30.2552 63.9384 29.6774 63.2258 29.6774Z" fill="#231F20"/>
</svg>
