<svg width="80" height="71" viewBox="0 0 80 71" fill="none" xmlns="http://www.w3.org/2000/svg">
<path d="M31.564 51.3459C31.2618 51.3459 30.9574 51.242 30.709 51.0305L22.1624 43.7531C21.8676 43.5017 21.6981 43.1347 21.6981 42.747C21.6981 42.3601 21.8684 41.993 22.1624 41.7417L30.709 34.4643C31.264 33.9911 32.0976 34.0582 32.5708 34.6132C33.0432 35.1689 32.9769 36.0025 32.4211 36.4749L25.056 42.747L32.4211 49.0191C32.9769 49.4923 33.0432 50.3259 32.5708 50.8809C32.3091 51.1882 31.9377 51.3459 31.564 51.3459Z" fill="#F3BD03"/>
<path d="M48.436 51.3459C48.0624 51.3459 47.6909 51.1882 47.43 50.8809C46.9568 50.3259 47.0239 49.4923 47.5789 49.0191L54.944 42.747L47.5789 36.4749C47.0239 36.0025 46.9568 35.1689 47.43 34.6132C47.9024 34.0582 48.7367 33.9911 49.291 34.4643L57.8376 41.7417C58.1324 41.993 58.3019 42.3601 58.3019 42.747C58.3019 43.1347 58.1324 43.5017 57.8376 43.7531L49.291 51.0305C49.0426 51.242 48.7382 51.3459 48.436 51.3459Z" fill="#F3BD03"/>
<path d="M36.9745 56.8042C36.8838 56.8042 36.7924 56.7946 36.7003 56.7755C35.9869 56.6251 35.5299 55.9242 35.6803 55.2108L41.0068 29.9211C41.1571 29.2077 41.8573 28.7507 42.5715 28.9011C43.2849 29.0514 43.7419 29.7516 43.5915 30.4658L38.265 55.7554C38.1338 56.3775 37.5855 56.8042 36.9745 56.8042Z" fill="#F3BD03"/>
<path d="M71.1321 70.5823H8.86792C3.97848 70.5823 0 66.6045 0 61.7143V8.86792C0 3.97848 3.97848 0 8.86792 0H71.1321C76.0215 0 80 3.97848 80 8.86792V61.7143C80 66.6045 76.0215 70.5823 71.1321 70.5823ZM8.86792 2.64151C5.43485 2.64151 2.64151 5.43485 2.64151 8.86792V61.7143C2.64151 65.1474 5.43485 67.9407 8.86792 67.9407H71.1321C74.5652 67.9407 77.3585 65.1474 77.3585 61.7143V8.86792C77.3585 5.43485 74.5652 2.64151 71.1321 2.64151H8.86792Z" fill="black"/>
<path d="M78.6792 21.149H1.32075C0.591097 21.149 0 20.5579 0 19.8283C0 19.0993 0.591097 18.5075 1.32075 18.5075H78.6792C79.4089 18.5075 80 19.0993 80 19.8283C80 20.5579 79.4089 21.149 78.6792 21.149Z" fill="black"/>
<path d="M22.5663 14.829C20.2624 14.829 18.3866 12.9532 18.3866 10.6493C18.3866 8.3446 20.2624 6.4696 22.5663 6.4696C24.871 6.4696 26.746 8.3446 26.746 10.6493C26.746 12.9532 24.871 14.829 22.5663 14.829ZM22.5663 9.11111C21.7187 9.11111 21.0281 9.80097 21.0281 10.6493C21.0281 11.4976 21.7187 12.1875 22.5663 12.1875C23.4146 12.1875 24.1045 11.4976 24.1045 10.6493C24.1045 9.80097 23.4146 9.11111 22.5663 9.11111Z" fill="black"/>
<path d="M9.72437 14.7886C7.41968 14.7886 5.54468 12.9136 5.54468 10.6089C5.54468 8.3042 7.41968 6.4292 9.72437 6.4292C12.0291 6.4292 13.9041 8.3042 13.9041 10.6089C13.9041 12.9136 12.0291 14.7886 9.72437 14.7886ZM9.72437 9.07071C8.87678 9.07071 8.18619 9.7613 8.18619 10.6089C8.18619 11.4572 8.87678 12.1471 9.72437 12.1471C10.5727 12.1471 11.2625 11.4572 11.2625 10.6089C11.2625 9.7613 10.5727 9.07071 9.72437 9.07071Z" fill="black"/>
<path d="M35.4083 14.8688C33.1044 14.8688 31.2294 12.9938 31.2294 10.6891C31.2294 8.38519 33.1044 6.51019 35.4083 6.51019C37.713 6.51019 39.588 8.38519 39.588 10.6891C39.588 12.9938 37.713 14.8688 35.4083 14.8688ZM35.4083 9.15097C34.5607 9.15097 33.8709 9.84082 33.8709 10.6891C33.8709 11.5375 34.5607 12.2273 35.4083 12.2273C36.2566 12.2273 36.9465 11.5375 36.9465 10.6891C36.9465 9.84082 36.2566 9.15097 35.4083 9.15097Z" fill="black"/>
</svg>
